<svg id="BACKGROUND" xmlns="http://www.w3.org/2000/svg" xmlns:xlink="http://www.w3.org/1999/xlink" viewBox="0 0 307.33 222.67"><defs><style>.cls-1{fill:#1e2b37;}.cls-2{fill:#1a1f28;}.cls-3{fill:#396caa;}.cls-4{fill:#173d7a;}.cls-5{fill:url(#Áåçûìÿííûé_ãðàäèåíò_21);}.cls-6{fill:#6b8399;}.cls-7{fill:#fff;}.cls-8{fill:#233240;}.cls-9{fill:#db1834;}.cls-10{fill:#18232d;}.cls-11{fill:#e11836;}.cls-12{fill:#871719;}.cls-13{fill:#ea6c84;}.cls-14{fill:#d6dde8;}</style><linearGradient id="Áåçûìÿííûé_ãðàäèåíò_21" x1="105.9" y1="102.28" x2="315.24" y2="102.28" gradientUnits="userSpaceOnUse"><stop offset="0" stop-color="#86b8e0"/><stop offset="0.12" stop-color="#98c4e7"/><stop offset="0.33" stop-color="#b2d6f2"/><stop offset="0.54" stop-color="#c5e2f9"/><stop offset="0.76" stop-color="#d0eafe"/><stop offset="1" stop-color="#d4ecff"/></linearGradient></defs><title>mail</title><rect class="cls-1" width="307.33" height="222.67"/><path class="cls-2" d="M292.85,103.9,208.77,55.21c-4.57-2.65-12.55-2.33-17.83.71L14.49,157.47c-5.28,3-5.86,7.65-1.29,10.29l84.08,48.69c4.57,2.65,12.55,2.33,17.83-.71L291.56,114.19C296.84,111.15,297.42,106.54,292.85,103.9Z"/><path class="cls-3" d="M94.82,186.53,7.32,135.86C4.45,134.2,3.11,132,3.2,129.62h0l0-12.7,4.87,5.7c.32-.21.63-.42,1-.61l179-103c7.11-4.09,17.85-4.52,24-1l86.27,50,5.41-5.95,0,12.42h0c.13,2.8-1.86,5.78-5.88,8.09l-179,103C111.71,189.66,101,190.09,94.82,186.53Z"/><path class="cls-4" d="M47.51,155.45l5,2.91c.67.39,1.21,0,1.21-.92h0a2.9,2.9,0,0,0-1.21-2.32l-5-2.91c-.67-.39-1.21,0-1.21.92h0A2.9,2.9,0,0,0,47.51,155.45Z"/><path class="cls-5" d="M188.06,19c7.11-4.09,17.85-4.52,24-1l86.27,50,5.41-5.95,0,12.42h0c.13,2.8-1.86,5.78-5.88,8.09l-179,103a27.68,27.68,0,0,1-12.92,3.36l.17-122.74Z"/><path class="cls-6" d="M299.59,55.95,212.09,5.28c-6.14-3.56-16.89-3.13-24,1l-179,103C2,113.34,1.22,119.54,7.36,123.1l87.5,50.67c6.14,3.56,16.89,3.13,24-1l179-103C305,65.71,305.73,59.51,299.59,55.95Z"/><path class="cls-7" d="M94.79,175.12,7.29,124.45c-3.17-1.84-4.48-4.37-4-7,.16,2.1,1.5,4.09,4.12,5.61l87.5,50.67c6.14,3.56,16.89,3.13,24-1l179-103c3.44-2,5.38-4.46,5.79-6.89.21,2.84-1.77,5.89-5.86,8.24l-179,103C111.68,178.25,100.94,178.68,94.79,175.12Z"/><path class="cls-8" d="M292.85,57.94,208.77,9.26c-4.57-2.65-12.55-2.33-17.83.71L14.49,111.52c-5.28,3-5.86,7.65-1.29,10.29L97.27,170.5c4.57,2.65,12.55,2.33,17.83-.71L291.56,68.24C296.84,65.2,297.42,60.59,292.85,57.94Z"/><polygon class="cls-6" points="118.45 145.21 59.12 110.96 62.91 108.77 122.23 143.03 118.45 145.21"/><polygon class="cls-6" points="77.17 135.23 47.13 117.88 50.91 115.7 80.95 133.04 77.17 135.23"/><polygon class="cls-9" points="91.75 143.64 82 138.02 85.79 135.83 95.53 141.46 91.75 143.64"/><polygon class="cls-7" points="106.46 152.14 96.71 146.51 100.5 144.33 110.24 149.95 106.46 152.14"/><polygon class="cls-7" points="77.5 128.5 53.12 114.42 56.91 112.23 81.29 126.31 77.5 128.5"/><polygon class="cls-6" points="107.27 145.68 82.88 131.6 86.67 129.42 111.05 143.49 107.27 145.68"/><path class="cls-9" d="M89.21,115.59a4.88,4.88,0,0,1-4.42,0,1.35,1.35,0,0,1,0-2.55,4.88,4.88,0,0,1,4.42,0A1.35,1.35,0,0,1,89.21,115.59Z"/><path class="cls-7" d="M95.82,119.4a4.88,4.88,0,0,1-4.42,0,1.35,1.35,0,0,1,0-2.55,4.88,4.88,0,0,1,4.42,0A1.35,1.35,0,0,1,95.82,119.4Z"/><path class="cls-6" d="M102.42,123.21a4.88,4.88,0,0,1-4.42,0,1.35,1.35,0,0,1,0-2.55,4.88,4.88,0,0,1,4.42,0A1.35,1.35,0,0,1,102.42,123.21Z"/><path class="cls-9" d="M109,127a4.88,4.88,0,0,1-4.42,0,1.35,1.35,0,0,1,0-2.55,4.88,4.88,0,0,1,4.42,0A1.35,1.35,0,0,1,109,127Z"/><path class="cls-7" d="M115.62,130.84a4.88,4.88,0,0,1-4.42,0,1.35,1.35,0,0,1,0-2.55,4.88,4.88,0,0,1,4.42,0A1.35,1.35,0,0,1,115.62,130.84Z"/><polygon class="cls-9" points="248.31 58.32 238.32 52.55 242.21 50.31 252.19 56.08 248.31 58.32"/><polygon class="cls-7" points="262.22 66.35 252.23 60.58 256.12 58.34 266.1 64.11 262.22 66.35"/><polygon class="cls-7" points="203.69 32.32 193.7 26.55 197.59 24.31 207.58 30.07 203.69 32.32"/><polygon class="cls-7" points="246.09 64.13 232.18 56.1 236.06 53.86 249.97 61.89 246.09 64.13"/><polygon class="cls-6" points="256.07 69.9 249.97 66.38 253.85 64.13 259.96 67.66 256.07 69.9"/><path class="cls-10" d="M186.1,106.79c-13.42,7.75-35.18,7.75-48.6,0s-13.42-20.31,0-28.06,35.18-7.75,48.6,0S199.52,99,186.1,106.79Z"/><path class="cls-11" d="M204.52,65.85v-12h-2.26A27.28,27.28,0,0,0,192,44.27c-16.68-9.63-43.73-9.63-60.41,0a27.28,27.28,0,0,0-10.25,9.59h-2.26V65.78h0c0,6.33,4.14,12.67,12.51,17.5,16.68,9.63,43.73,9.63,60.41,0C200.35,78.47,204.52,72.16,204.52,65.85Z"/><path class="cls-12" d="M192,44.27C183.67,39.45,172.74,37,161.8,37V90.51c10.93,0,21.86-2.41,30.21-7.22s12.51-11.13,12.51-17.44v-12h-2.26A27.28,27.28,0,0,0,192,44.27Z"/><path class="cls-11" d="M192,71.29c-16.68,9.63-43.73,9.63-60.41,0s-16.68-25.25,0-34.88,43.73-9.63,60.41,0S208.69,61.66,192,71.29Z"/><path class="cls-13" d="M192,71.29c-16.68,9.63-43.73,9.63-60.41,0-8-4.62-12.12-10.61-12.45-16.66-.36,6.57,3.76,13.21,12.45,18.23,16.68,9.63,43.73,9.63,60.41,0,8.69-5,12.81-11.65,12.45-18.22C204.12,60.69,200,66.68,192,71.29Z"/><polygon class="cls-14" points="155.11 130.51 86.91 91.14 88.72 90.09 156.92 129.47 155.11 130.51"/><polygon class="cls-6" points="108.92 104.98 85.93 91.71 89.71 89.52 112.7 102.8 108.92 104.98"/><polygon class="cls-7" points="108.01 105.7 107.04 105.16 112.99 101.73 113.95 102.27 108.01 105.7"/><polygon class="cls-7" points="155.64 59.12 151.8 56.9 177.93 40.8 183.35 43.93 155.64 59.12"/><path class="cls-7" d="M149.18,60.65c2,1.17,1.87,2.76-.15,3.94a7.11,7.11,0,0,1-6.8.1c-2-1.14-1.82-2.81.14-3.94A7.19,7.19,0,0,1,149.18,60.65Z"/></svg>