<?xml version="1.0" encoding="utf-8"?>
<!-- Generator: Adobe Illustrator 21.0.0, SVG Export Plug-In . SVG Version: 6.00 Build 0)  -->
<svg version="1.1" id="Ñëîé_1" xmlns="http://www.w3.org/2000/svg" xmlns:xlink="http://www.w3.org/1999/xlink" x="0px" y="0px"
	 viewBox="0 0 273.8 291.5" style="enable-background:new 0 0 273.8 291.5;" xml:space="preserve">
<style type="text/css">
	.st0{fill:#1E2B37;}
	.st1{fill:#1A1F28;}
	.st2{fill:#6B8399;}
	.st3{fill:#D6DDE8;}
	.st4{fill:#233240;}
	.st5{fill:#396CAA;}
	.st6{fill:#FFFFFF;}
	.st7{fill:#E11836;}
	.st8{fill:#E83B1F;}
	.st9{fill:#E2E2E2;}
	.st10{fill:url(#SVGID_1_);}
	.st11{fill:#EAEAEA;}
	.st12{fill:#FFC2B0;}
	.st13{fill:#EA9C92;}
</style>
<rect class="st0" width="273.8" height="291.5"/>
<g>
	<path class="st1" d="M273.8,97.2v85.3c0,2.9-2,4.1-4.5,2.6L154,118.6c-2.5-1.4-4.5-5-4.5-7.9V25.5L273.8,97.2z"/>
</g>
<path class="st2" d="M175.5,179.8c-0.2,0-0.5-0.1-0.6-0.3c-0.2-0.3-0.1-0.7,0.2-0.9l9.1-5.3c1-0.6,1.7-1.7,1.7-2.9v-7
	c0-0.4,0.3-0.7,0.7-0.7c0.4,0,0.7,0.3,0.7,0.7v7c0,1.7-0.9,3.2-2.3,4.1l-9.1,5.3C175.8,179.7,175.6,179.8,175.5,179.8z"/>
<g>
	<g>
		<g>
			<g>
				
					<rect x="168.5" y="175.5" transform="matrix(0.4974 0.8675 -0.8675 0.4974 243.5377 -57.3483)" class="st2" width="5.5" height="12"/>
				<path class="st2" d="M178.4,179.7c0-1.3-0.9-2.8-2-3.4s-2-0.1-2,1.1c0,1.3,0.9,2.8,2,3.4C177.5,181.4,178.4,180.9,178.4,179.7z"
					/>
			</g>
			<g>
				
					<rect x="155.3" y="178.7" transform="matrix(0.4974 0.8675 -0.8675 0.4974 243.4796 -44.0362)" class="st2" width="9" height="18.8"/>
				<path class="st3" d="M166.4,181.1l3.5-2c1.5,1,2.6,3,2.8,4.8l-3.5,2C167.7,184.9,166.6,182.9,166.4,181.1z"/>
				<path class="st2" d="M171.1,185.3c0-2-1.4-4.5-3.2-5.5c-1.8-1-3.2-0.2-3.2,1.8c0,2,1.4,4.5,3.2,5.5
					C169.6,188.1,171.1,187.3,171.1,185.3z"/>
			</g>
		</g>
	</g>
	<path class="st4" d="M175.1,178.4c0.5-0.3,0.5-0.8,0-1.1s-1.3-0.3-1.8,0c-0.5,0.3-0.5,0.8,0,1.1
		C173.8,178.7,174.6,178.7,175.1,178.4z"/>
</g>
<path class="st2" d="M35.3,180.9c-0.1,0-0.2,0-0.3-0.1l-8-4.6c-0.7-0.4-1.1-1.1-1.1-1.8c0-0.8,0.4-1.5,1.1-1.8l51.7-28.3
	c4.8-2.6,7.7-7.6,7.7-13V67c0-1.1-0.6-2.1-1.5-2.7c-1-0.6-2.1-0.6-3.1-0.1l-17.2,9.4c-0.3,0.2-0.7,0.1-0.9-0.3
	c-0.2-0.3-0.1-0.7,0.3-0.9L81.2,63c1.4-0.8,3-0.7,4.4,0.1c1.4,0.8,2.2,2.2,2.2,3.8v64.3c0,5.9-3.2,11.4-8.4,14.2l-51.7,28.3
	c-0.4,0.2-0.4,0.5-0.4,0.7c0,0.1,0,0.5,0.4,0.7l8,4.6c0.3,0.2,0.4,0.6,0.2,0.9C35.8,180.8,35.5,180.9,35.3,180.9z"/>
<g>
	<g>
		<g>
			<g>
				
					<rect x="59.9" y="68.3" transform="matrix(0.4974 0.8675 -0.8675 0.4974 95.9379 -16.995)" class="st2" width="5.5" height="12"/>
				<path class="st2" d="M69.8,72.5c0-1.3-0.9-2.8-2-3.4c-1.1-0.6-2-0.1-2,1.1c0,1.3,0.9,2.8,2,3.4C68.9,74.2,69.8,73.7,69.8,72.5z"
					/>
			</g>
			<g>
				
					<rect x="46.6" y="71.5" transform="matrix(0.4974 0.8675 -0.8675 0.4974 95.878 -3.6835)" class="st2" width="9" height="18.8"/>
				<path class="st3" d="M57.8,73.9l3.5-2c1.5,1,2.6,3,2.8,4.8l-3.5,2C59.1,77.7,57.9,75.7,57.8,73.9z"/>
				<path class="st2" d="M62.4,78.1c0-2-1.4-4.5-3.2-5.5c-1.8-1-3.2-0.2-3.2,1.8c0,2,1.4,4.5,3.2,5.5C61,80.9,62.4,80.1,62.4,78.1z"
					/>
			</g>
		</g>
	</g>
	<path class="st4" d="M66.5,71.2c0.5-0.3,0.5-0.8,0-1.1c-0.5-0.3-1.3-0.3-1.8,0c-0.5,0.3-0.5,0.8,0,1.1C65.2,71.5,66,71.5,66.5,71.2
		z"/>
</g>
<g>
	<g>
		<g>
			<g>
				
					<rect x="33.9" y="174.8" transform="matrix(-0.4975 0.8675 -0.8675 -0.4975 211.7798 238.8362)" class="st2" width="5.5" height="12"/>
				<path class="st2" d="M29.6,178.9c0-1.3,0.9-2.8,2-3.4c1.1-0.6,2-0.1,2,1.1c0,1.3-0.9,2.8-2,3.4S29.6,180.2,29.6,178.9z"/>
			</g>
			<g>
				
					<rect x="43.7" y="178" transform="matrix(-0.4974 0.8675 -0.8675 -0.4974 234.7586 238.7338)" class="st2" width="9" height="18.8"/>
				<path class="st3" d="M41.6,180.4l-3.5-2c-1.5,1-2.6,3-2.8,4.8l3.5,2C40.3,184.1,41.4,182.1,41.6,180.4z"/>
				<path class="st2" d="M36.9,184.5c0-2,1.4-4.5,3.2-5.5c1.8-1,3.2-0.2,3.2,1.8s-1.4,4.5-3.2,5.5C38.3,187.4,36.9,186.6,36.9,184.5
					z"/>
			</g>
		</g>
	</g>
	<path class="st4" d="M32.8,177.6c-0.5-0.3-0.5-0.8,0-1.1c0.5-0.3,1.3-0.3,1.8,0c0.5,0.3,0.5,0.8,0,1.1
		C34.2,177.9,33.3,177.9,32.8,177.6z"/>
</g>
<g>
	<g>
		<path class="st1" d="M132.2,290.3L17.5,224.1c-3.2-1.9-2.8-5.1,0.9-7.3l78.1-45c3.7-2.2,9.4-2.4,12.7-0.5l114.6,66.2
			c3.2,1.9,2.8,5.1-0.9,7.3l-78.1,45C141.1,291.9,135.4,292.1,132.2,290.3z"/>
		<path class="st2" d="M226,225l-15.7-2.1l-101.1-58.4c-3.2-1.9-8.9-1.6-12.7,0.5l-71.7,41.4l-9.5-1.3v5.4l0,0
			c-0.1,1.2,0.6,2.4,2.2,3.3l114.6,66.2c3.2,1.9,8.9,1.6,12.7-0.5l78.1-45c2.1-1.2,3.2-2.8,3.1-4.3l0,0V225z"/>
		<path class="st3" d="M150,188.1l-7.2-4.1h-79l-38.9,22.5l-9.5-1.3v5.4l0,0c-0.1,1.2,0.6,2.4,2.2,3.3l114.6,66.2
			c1.7,1,4.1,1.4,6.5,1.2L150,188.1z"/>
		<path class="st2" d="M19.5,205.8l-4.2-0.6v5.4l0,0c-0.1,1.2,0.6,2.4,2.2,3.3l2,1.2V205.8z"/>
		<path class="st5" d="M133.3,280.6c3.1,1.2,7.5,0.9,10.7-0.7v-12h-10.7V280.6z"/>
		<path class="st4" d="M132.2,274.7L17.5,208.5c-3.2-1.9-2.8-5.1,0.9-7.3l78.1-45c3.7-2.2,9.4-2.4,12.7-0.5l114.6,66.2
			c3.2,1.9,2.8,5.1-0.9,7.3l-78.1,45C141.1,276.3,135.4,276.6,132.2,274.7z"/>
		<path class="st6" d="M222.9,227.2l-78.1,45c-3.7,2.2-9.4,2.4-12.7,0.5L17.5,206.6c-1.1-0.6-1.7-1.4-2-2.2c-0.5,1.5,0.1,3.1,2,4.2
			l114.6,66.2c3.2,1.9,8.9,1.6,12.7-0.5l78.1-45c2.5-1.5,3.5-3.4,2.9-5.1C225.4,225.1,224.4,226.3,222.9,227.2z"/>
		<g>
			<path class="st2" d="M66.3,186.6l-5.2-3c-0.4-0.2-0.4-0.7,0.1-0.9l6.1-3.5c0.5-0.3,1.2-0.3,1.6-0.1l5.2,3
				c0.4,0.2,0.4,0.7-0.1,0.9l-6.1,3.5C67.4,186.8,66.7,186.9,66.3,186.6z"/>
			<path class="st2" d="M74.3,191.2l-5.2-3c-0.4-0.2-0.4-0.7,0.1-0.9l6.1-3.5c0.5-0.3,1.2-0.3,1.6-0.1l5.2,3
				c0.4,0.2,0.4,0.7-0.1,0.9l-6.1,3.5C75.4,191.4,74.7,191.5,74.3,191.2z"/>
			<path class="st2" d="M82.3,195.9l-5.2-3c-0.4-0.2-0.4-0.7,0.1-0.9l6.1-3.5c0.5-0.3,1.2-0.3,1.6-0.1l5.2,3
				c0.4,0.2,0.4,0.7-0.1,0.9l-6.1,3.5C83.4,196.1,82.7,196.1,82.3,195.9z"/>
			<path class="st2" d="M93.4,192l-5.2-3c-0.4-0.2-0.4-0.7,0.1-0.9l5.1-3c0.5-0.3,1.2-0.3,1.6-0.1l5.2,3c0.4,0.2,0.4,0.7-0.1,0.9
				l-5.1,3C94.5,192.3,93.8,192.3,93.4,192z"/>
			<path class="st2" d="M101.4,196.7l-5.2-3c-0.4-0.2-0.4-0.7,0.1-0.9l5.1-3c0.5-0.3,1.2-0.3,1.6-0.1l5.2,3c0.4,0.2,0.4,0.7-0.1,0.9
				l-5.1,3C102.5,196.9,101.8,196.9,101.4,196.7z"/>
			<path class="st2" d="M109.4,201.3l-5.2-3c-0.4-0.2-0.4-0.7,0.1-0.9l5.1-3c0.5-0.3,1.2-0.3,1.6-0.1l5.2,3c0.4,0.2,0.4,0.7-0.1,0.9
				l-5.1,3C110.5,201.5,109.8,201.5,109.4,201.3z"/>
			<path class="st2" d="M117.4,205.9l-5.2-3c-0.4-0.2-0.4-0.7,0.1-0.9l5.1-3c0.5-0.3,1.2-0.3,1.6-0.1l5.2,3c0.4,0.2,0.4,0.7-0.1,0.9
				l-5.1,3C118.6,206.1,117.8,206.2,117.4,205.9z"/>
			<path class="st2" d="M125.4,210.5l-5.2-3c-0.4-0.2-0.4-0.7,0.1-0.9l5.1-3c0.5-0.3,1.2-0.3,1.6-0.1l5.2,3c0.4,0.2,0.4,0.7-0.1,0.9
				l-5.1,3C126.6,210.8,125.8,210.8,125.4,210.5z"/>
			<path class="st2" d="M133.4,215.2l-5.2-3c-0.4-0.2-0.4-0.7,0.1-0.9l5.1-3c0.5-0.3,1.2-0.3,1.6-0.1l5.2,3c0.4,0.2,0.4,0.7-0.1,0.9
				l-5.1,3C134.6,215.4,133.8,215.4,133.4,215.2z"/>
			<path class="st2" d="M141.4,219.8l-5.2-3c-0.4-0.2-0.4-0.7,0.1-0.9l5.1-3c0.5-0.3,1.2-0.3,1.6-0.1l5.2,3c0.4,0.2,0.4,0.7-0.1,0.9
				l-5.1,3C142.6,220,141.9,220,141.4,219.8z"/>
			<path class="st2" d="M149.4,224.4l-5.2-3c-0.4-0.2-0.4-0.7,0.1-0.9l5.1-3c0.5-0.3,1.2-0.3,1.6-0.1l5.2,3c0.4,0.2,0.4,0.7-0.1,0.9
				l-5.1,3C150.6,224.6,149.9,224.7,149.4,224.4z"/>
			<path class="st2" d="M157.5,229l-5.2-3c-0.4-0.2-0.4-0.7,0.1-0.9l5.1-3c0.5-0.3,1.2-0.3,1.6-0.1l5.2,3c0.4,0.2,0.4,0.7-0.1,0.9
				l-5.1,3C158.6,229.2,157.9,229.3,157.5,229z"/>
			<path class="st2" d="M165.5,233.7l-5.2-3c-0.4-0.2-0.4-0.7,0.1-0.9l5.1-3c0.5-0.3,1.2-0.3,1.6-0.1l5.2,3c0.4,0.2,0.4,0.7-0.1,0.9
				l-5.1,3C166.6,233.9,165.9,233.9,165.5,233.7z"/>
			<path class="st3" d="M105.2,189.9l-5.2-3c-0.4-0.2-0.4-0.7,0.1-0.9l5.1-3c0.5-0.3,1.2-0.3,1.6-0.1l5.2,3c0.4,0.2,0.4,0.7-0.1,0.9
				l-5.1,3C106.3,190.1,105.6,190.1,105.2,189.9z"/>
			<path class="st3" d="M97.1,185.2l-5.2-3c-0.4-0.2-0.4-0.7,0.1-0.9l5.1-3c0.5-0.3,1.2-0.3,1.6-0.1l5.2,3c0.4,0.2,0.4,0.7-0.1,0.9
				l-5.1,3C98.2,185.4,97.5,185.4,97.1,185.2z"/>
			<path class="st2" d="M88.9,180.5L77.7,174c-0.4-0.2-0.4-0.7,0.1-0.9l5.1-3c0.5-0.3,1.2-0.3,1.6-0.1l11.2,6.4
				c0.4,0.2,0.4,0.7-0.1,0.9l-5.1,3C90.1,180.7,89.3,180.7,88.9,180.5z"/>
			<path class="st2" d="M94.6,174.7l-9.1-5.2c-0.4-0.2-0.4-0.7,0.1-0.9l5.1-3c0.5-0.3,1.2-0.3,1.6-0.1l9.1,5.2
				c0.4,0.2,0.4,0.7-0.1,0.9l-5.1,3C95.7,175,95,175,94.6,174.7z"/>
			<path class="st3" d="M113.2,194.5l-5.2-3c-0.4-0.2-0.4-0.7,0.1-0.9l5.1-3c0.5-0.3,1.2-0.3,1.6-0.1l5.2,3c0.4,0.2,0.4,0.7-0.1,0.9
				l-5.1,3C114.3,194.7,113.6,194.7,113.2,194.5z"/>
			<path class="st2" d="M121.2,199.1l-5.2-3c-0.4-0.2-0.4-0.7,0.1-0.9l5.1-3c0.5-0.3,1.2-0.3,1.6-0.1l5.2,3c0.4,0.2,0.4,0.7-0.1,0.9
				l-5.1,3C122.3,199.3,121.6,199.3,121.2,199.1z"/>
			<path class="st2" d="M129.2,203.7l-5.2-3c-0.4-0.2-0.4-0.7,0.1-0.9l5.1-3c0.5-0.3,1.2-0.3,1.6-0.1l5.2,3c0.4,0.2,0.4,0.7-0.1,0.9
				l-5.1,3C130.4,203.9,129.6,204,129.2,203.7z"/>
			<path class="st2" d="M137.2,208.4l-5.2-3c-0.4-0.2-0.4-0.7,0.1-0.9l5.1-3c0.5-0.3,1.2-0.3,1.6-0.1l5.2,3c0.4,0.2,0.4,0.7-0.1,0.9
				l-5.1,3C138.4,208.6,137.6,208.6,137.2,208.4z"/>
			<path class="st2" d="M145.2,213l-5.2-3c-0.4-0.2-0.4-0.7,0.1-0.9l5.1-3c0.5-0.3,1.2-0.3,1.6-0.1l5.2,3c0.4,0.2,0.4,0.7-0.1,0.9
				l-5.1,3C146.4,213.2,145.6,213.2,145.2,213z"/>
			<path class="st2" d="M153.2,217.6l-5.2-3c-0.4-0.2-0.4-0.7,0.1-0.9l5.1-3c0.5-0.3,1.2-0.3,1.6-0.1l5.2,3c0.4,0.2,0.4,0.7-0.1,0.9
				l-5.1,3C154.4,217.8,153.7,217.8,153.2,217.6z"/>
			<path class="st2" d="M161.2,222.2l-5.2-3c-0.4-0.2-0.4-0.7,0.1-0.9l5.1-3c0.5-0.3,1.2-0.3,1.6-0.1l5.2,3c0.4,0.2,0.4,0.7-0.1,0.9
				l-5.1,3C162.4,222.4,161.7,222.5,161.2,222.2z"/>
			<path class="st2" d="M169.3,226.8l-5.2-3c-0.4-0.2-0.4-0.7,0.1-0.9l5.1-3c0.5-0.3,1.2-0.3,1.6-0.1l5.2,3c0.4,0.2,0.4,0.7-0.1,0.9
				l-5.1,3C170.4,227.1,169.7,227.1,169.3,226.8z"/>
			<path class="st2" d="M177.3,231.5l-5.2-3c-0.4-0.2-0.4-0.7,0.1-0.9l5.1-3c0.5-0.3,1.2-0.3,1.6-0.1l5.2,3c0.4,0.2,0.4,0.7-0.1,0.9
				l-5.1,3C178.4,231.7,177.7,231.7,177.3,231.5z"/>
			<path class="st2" d="M191.5,239.7l-11.3-6.5c-0.4-0.2-0.4-0.7,0.1-0.9l5.1-3c0.5-0.3,1.2-0.3,1.6-0.1l11.3,6.5
				c0.4,0.2,0.4,0.7-0.1,0.9l-5.1,3C192.6,239.9,191.9,239.9,191.5,239.7z"/>
			<path class="st2" d="M207.1,230.7l-9.6-5.5c-0.4-0.2-0.4-0.7,0.1-0.9l5.1-3c0.5-0.3,1.2-0.3,1.6-0.1l9.6,5.5
				c0.4,0.2,0.4,0.7-0.1,0.9l-5.1,3C208.2,230.9,207.5,230.9,207.1,230.7z"/>
			<path class="st2" d="M127.2,193.6l-5.2-3c-0.4-0.2-0.4-0.7,0.1-0.9l5.1-3c0.5-0.3,1.2-0.3,1.6-0.1l5.2,3c0.4,0.2,0.4,0.7-0.1,0.9
				l-5.1,3C128.4,193.8,127.6,193.8,127.2,193.6z"/>
			<path class="st2" d="M119,188.8l-5.2-3c-0.4-0.2-0.4-0.7,0.1-0.9l5.1-3c0.5-0.3,1.2-0.3,1.6-0.1l5.2,3c0.4,0.2,0.4,0.7-0.1,0.9
				l-5.1,3C120.2,189,119.4,189.1,119,188.8z"/>
			<path class="st3" d="M110.8,184.1l-5.2-3c-0.4-0.2-0.4-0.7,0.1-0.9l5.1-3c0.5-0.3,1.2-0.3,1.6-0.1l5.2,3c0.4,0.2,0.4,0.7-0.1,0.9
				l-5.1,3C111.9,184.3,111.2,184.3,110.8,184.1z"/>
			<path class="st2" d="M102.6,179.4l-5.2-3c-0.4-0.2-0.4-0.7,0.1-0.9l5.1-3c0.5-0.3,1.2-0.3,1.6-0.1l5.2,3c0.4,0.2,0.4,0.7-0.1,0.9
				l-5.1,3C103.7,179.6,103,179.6,102.6,179.4z"/>
			<path class="st2" d="M135.2,198.2l-5.2-3c-0.4-0.2-0.4-0.7,0.1-0.9l5.1-3c0.5-0.3,1.2-0.3,1.6-0.1l5.2,3c0.4,0.2,0.4,0.7-0.1,0.9
				l-5.1,3C136.4,198.4,135.6,198.4,135.2,198.2z"/>
			<path class="st2" d="M143.2,202.8l-5.2-3c-0.4-0.2-0.4-0.7,0.1-0.9l5.1-3c0.5-0.3,1.2-0.3,1.6-0.1l5.2,3c0.4,0.2,0.4,0.7-0.1,0.9
				l-5.1,3C144.4,203,143.7,203.1,143.2,202.8z"/>
			<path class="st2" d="M151.2,207.4l-5.2-3c-0.4-0.2-0.4-0.7,0.1-0.9l5.1-3c0.5-0.3,1.2-0.3,1.6-0.1l5.2,3c0.4,0.2,0.4,0.7-0.1,0.9
				l-5.1,3C152.4,207.7,151.7,207.7,151.2,207.4z"/>
			<path class="st2" d="M159.3,212.1l-5.2-3c-0.4-0.2-0.4-0.7,0.1-0.9l5.1-3c0.5-0.3,1.2-0.3,1.6-0.1l5.2,3c0.4,0.2,0.4,0.7-0.1,0.9
				l-5.1,3C160.4,212.3,159.7,212.3,159.3,212.1z"/>
			<path class="st2" d="M167.3,216.7l-5.2-3c-0.4-0.2-0.4-0.7,0.1-0.9l5.1-3c0.5-0.3,1.2-0.3,1.6-0.1l5.2,3c0.4,0.2,0.4,0.7-0.1,0.9
				l-5.1,3C168.4,216.9,167.7,216.9,167.3,216.7z"/>
			<path class="st2" d="M175.3,221.3l-5.2-3c-0.4-0.2-0.4-0.7,0.1-0.9l5.1-3c0.5-0.3,1.2-0.3,1.6-0.1l5.2,3c0.4,0.2,0.4,0.7-0.1,0.9
				l-5.1,3C176.4,221.5,175.7,221.6,175.3,221.3z"/>
			<path class="st2" d="M183.3,225.9l-5.2-3c-0.4-0.2-0.4-0.7,0.1-0.9l5.1-3c0.5-0.3,1.2-0.3,1.6-0.1l5.2,3c0.4,0.2,0.4,0.7-0.1,0.9
				l-5.1,3C184.4,226.2,183.7,226.2,183.3,225.9z"/>
			<path class="st2" d="M191.3,230.6l-5.2-3c-0.4-0.2-0.4-0.7,0.1-0.9l5.1-3c0.5-0.3,1.2-0.3,1.6-0.1l5.2,3c0.4,0.2,0.4,0.7-0.1,0.9
				l-5.1,3C192.4,230.8,191.7,230.8,191.3,230.6z"/>
			<path class="st2" d="M199.3,235.2l-5.2-3c-0.4-0.2-0.4-0.7,0.1-0.9l5.1-3c0.5-0.3,1.2-0.3,1.6-0.1l5.2,3c0.4,0.2,0.4,0.7-0.1,0.9
				l-5.1,3C200.4,235.4,199.7,235.4,199.3,235.2z"/>
			<path class="st2" d="M123,182.1l-5.2-3c-0.4-0.2-0.4-0.7,0.1-0.9l5.1-3c0.5-0.3,1.2-0.3,1.6-0.1l5.2,3c0.4,0.2,0.4,0.7-0.1,0.9
				l-5.1,3C124.1,182.3,123.4,182.4,123,182.1z"/>
			<path class="st2" d="M115,177.5l-5.2-3c-0.4-0.2-0.4-0.7,0.1-0.9l5.1-3c0.5-0.3,1.2-0.3,1.6-0.1l5.2,3c0.4,0.2,0.4,0.7-0.1,0.9
				l-5.1,3C116.2,177.7,115.4,177.8,115,177.5z"/>
			<path class="st2" d="M107.1,172.9l-5.2-3c-0.4-0.2-0.4-0.7,0.1-0.9l5.1-3c0.5-0.3,1.2-0.3,1.6-0.1l5.2,3c0.4,0.2,0.4,0.7-0.1,0.9
				l-5.1,3C108.2,173.1,107.5,173.2,107.1,172.9z"/>
			<path class="st2" d="M99.1,168.3l-5.2-3c-0.4-0.2-0.4-0.7,0.1-0.9l5.1-3c0.5-0.3,1.2-0.3,1.6-0.1l5.2,3c0.4,0.2,0.4,0.7-0.1,0.9
				l-5.1,3C100.2,168.5,99.5,168.6,99.1,168.3z"/>
			<path class="st2" d="M107.3,163.6l-5.2-3c-0.4-0.2-0.4-0.7,0.1-0.9l1.7-1c0.5-0.3,1.2-0.3,1.6-0.1l5.2,3c0.4,0.2,0.4,0.7-0.1,0.9
				l-1.7,1C108.4,163.8,107.7,163.8,107.3,163.6z"/>
			<path class="st2" d="M117.7,169.6l-5.2-3c-0.4-0.2-0.4-0.7,0.1-0.9l1.7-1c0.5-0.3,1.2-0.3,1.6-0.1l5.2,3c0.4,0.2,0.4,0.7-0.1,0.9
				l-1.7,1C118.8,169.8,118.1,169.8,117.7,169.6z"/>
			<path class="st2" d="M125.6,174.2l-5.2-3c-0.4-0.2-0.4-0.7,0.1-0.9l1.7-1c0.5-0.3,1.2-0.3,1.6-0.1l5.2,3c0.4,0.2,0.4,0.7-0.1,0.9
				l-1.7,1C126.8,174.4,126,174.4,125.6,174.2z"/>
			<path class="st2" d="M133.6,178.8l-5.2-3c-0.4-0.2-0.4-0.7,0.1-0.9l1.7-1c0.5-0.3,1.2-0.3,1.6-0.1l5.2,3c0.4,0.2,0.4,0.7-0.1,0.9
				l-1.7,1C134.7,179,134,179,133.6,178.8z"/>
			<path class="st2" d="M141.5,183.4l-5.2-3c-0.4-0.2-0.4-0.7,0.1-0.9l1.7-1c0.5-0.3,1.2-0.3,1.6-0.1l5.2,3c0.4,0.2,0.4,0.7-0.1,0.9
				l-1.7,1C142.6,183.6,141.9,183.6,141.5,183.4z"/>
			<path class="st2" d="M185.8,208.9l-5.2-3c-0.4-0.2-0.4-0.7,0.1-0.9l1.7-1c0.5-0.3,1.2-0.3,1.6-0.1l5.2,3c0.4,0.2,0.4,0.7-0.1,0.9
				l-1.7,1C186.9,209.1,186.2,209.2,185.8,208.9z"/>
			<path class="st2" d="M193.7,213.5l-5.2-3c-0.4-0.2-0.4-0.7,0.1-0.9l1.7-1c0.5-0.3,1.2-0.3,1.6-0.1l5.2,3c0.4,0.2,0.4,0.7-0.1,0.9
				l-1.7,1C194.9,213.7,194.2,213.8,193.7,213.5z"/>
			<path class="st2" d="M201.7,218.1l-5.2-3c-0.4-0.2-0.4-0.7,0.1-0.9l1.7-1c0.5-0.3,1.2-0.3,1.6-0.1l5.2,3c0.4,0.2,0.4,0.7-0.1,0.9
				l-1.7,1C202.8,218.3,202.1,218.3,201.7,218.1z"/>
			<path class="st2" d="M209.6,222.7l-5.2-3c-0.4-0.2-0.4-0.7,0.1-0.9l1.7-1c0.5-0.3,1.2-0.3,1.6-0.1l5.2,3c0.4,0.2,0.4,0.7-0.1,0.9
				l-1.7,1C210.8,222.9,210,222.9,209.6,222.7z"/>
			<path class="st2" d="M131,186.8l-5.2-3c-0.4-0.2-0.4-0.7,0.1-0.9l5.1-3c0.5-0.3,1.2-0.3,1.6-0.1l5.2,3c0.4,0.2,0.4,0.7-0.1,0.9
				l-5.1,3C132.2,187,131.4,187,131,186.8z"/>
			<path class="st2" d="M139,191.4l-5.2-3c-0.4-0.2-0.4-0.7,0.1-0.9l5.1-3c0.5-0.3,1.2-0.3,1.6-0.1l5.2,3c0.4,0.2,0.4,0.7-0.1,0.9
				l-5.1,3C140.2,191.6,139.4,191.6,139,191.4z"/>
			<path class="st2" d="M147,196l-5.2-3c-0.4-0.2-0.4-0.7,0.1-0.9l5.1-3c0.5-0.3,1.2-0.3,1.6-0.1l5.2,3c0.4,0.2,0.4,0.7-0.1,0.9
				l-5.1,3C148.2,196.2,147.4,196.3,147,196z"/>
			<path class="st2" d="M155,200.6l-5.2-3c-0.4-0.2-0.4-0.7,0.1-0.9l5.1-3c0.5-0.3,1.2-0.3,1.6-0.1l5.2,3c0.4,0.2,0.4,0.7-0.1,0.9
				l-5.1,3C156.2,200.8,155.5,200.9,155,200.6z"/>
			<path class="st2" d="M163,205.3l-5.2-3c-0.4-0.2-0.4-0.7,0.1-0.9l5.1-3c0.5-0.3,1.2-0.3,1.6-0.1l5.2,3c0.4,0.2,0.4,0.7-0.1,0.9
				l-5.1,3C164.2,205.5,163.5,205.5,163,205.3z"/>
			<path class="st2" d="M171.1,209.9l-5.2-3c-0.4-0.2-0.4-0.7,0.1-0.9l5.1-3c0.5-0.3,1.2-0.3,1.6-0.1l5.2,3c0.4,0.2,0.4,0.7-0.1,0.9
				l-5.1,3C172.2,210.1,171.5,210.1,171.1,209.9z"/>
			<path class="st2" d="M179.1,214.5l-5.2-3c-0.4-0.2-0.4-0.7,0.1-0.9l5.1-3c0.5-0.3,1.2-0.3,1.6-0.1l5.2,3c0.4,0.2,0.4,0.7-0.1,0.9
				l-5.1,3C180.2,214.7,179.5,214.7,179.1,214.5z"/>
			<path class="st2" d="M187.1,219.1l-5.2-3c-0.4-0.2-0.4-0.7,0.1-0.9l5.1-3c0.5-0.3,1.2-0.3,1.6-0.1l5.2,3c0.4,0.2,0.4,0.7-0.1,0.9
				l-5.1,3C188.2,219.3,187.5,219.4,187.1,219.1z"/>
			<path class="st2" d="M195.1,223.8l-5.2-3c-0.4-0.2-0.4-0.7,0.1-0.9l5.1-3c0.5-0.3,1.2-0.3,1.6-0.1l5.2,3c0.4,0.2,0.4,0.7-0.1,0.9
				l-5.1,3C196.2,224,195.5,224,195.1,223.8z"/>
			<path class="st2" d="M85.2,187.3l-15.3-8.8c-0.4-0.2-0.4-0.7,0.1-0.9l5.1-3c0.5-0.3,1.2-0.3,1.6-0.1l15.3,8.8
				c0.4,0.2,0.4,0.7-0.1,0.9l-5.1,3C86.4,187.5,85.6,187.6,85.2,187.3z"/>
			<path class="st2" d="M183.6,244.1l-15.3-8.8c-0.4-0.2-0.4-0.7,0.1-0.9l5.1-3c0.5-0.3,1.2-0.3,1.6-0.1l15.3,8.8
				c0.4,0.2,0.4,0.7-0.1,0.9l-5.1,3C184.8,244.4,184,244.4,183.6,244.1z"/>
			<path class="st2" d="M151.6,235.9l-5.2-3c-0.4-0.2-0.4-0.7,0.1-0.9l6.1-3.5c0.5-0.3,1.2-0.3,1.6-0.1l5.2,3
				c0.4,0.2,0.4,0.7-0.1,0.9l-6.1,3.5C152.7,236.1,152,236.1,151.6,235.9z"/>
			<path class="st2" d="M93.4,202.3l-8.3-4.8c-0.4-0.2-0.4-0.7,0.1-0.9l6.1-3.5c0.5-0.3,1.2-0.3,1.6-0.1l8.3,4.8
				c0.4,0.2,0.4,0.7-0.1,0.9l-6.1,3.5C94.6,202.5,93.8,202.5,93.4,202.3z"/>
			<path class="st2" d="M143.9,231.4l-8.3-4.8c-0.4-0.2-0.4-0.7,0.1-0.9l6.1-3.5c0.5-0.3,1.2-0.3,1.6-0.1l8.3,4.8
				c0.4,0.2,0.4,0.7-0.1,0.9l-6.1,3.5C145,231.6,144.3,231.6,143.9,231.4z"/>
			<path class="st2" d="M105,209l-8.3-4.8c-0.4-0.2-0.4-0.7,0.1-0.9l6.1-3.5c0.5-0.3,1.2-0.3,1.6-0.1l8.3,4.8
				c0.4,0.2,0.4,0.7-0.1,0.9l-6.1,3.5C106.1,209.2,105.4,209.2,105,209z"/>
			<path class="st2" d="M104.6,199.7l36.1,20.8c0.4,0.3,0.4,0.7,0,0.9l-6.2,3.6c-0.4,0.3-1.2,0.3-1.6,0l-36.1-20.8L104.6,199.7z"/>
			<path class="st2" d="M174,244.2l5.8,3.3c0.3,0.2,0.3,0.5-0.1,0.8l-2.5,1.4c-0.4,0.2-1,0.3-1.3,0.1l-5.8-3.3
				c-0.3-0.2-0.3-0.5,0.1-0.8l2.5-1.4C173,244.1,173.6,244.1,174,244.2z"/>
			<path class="st2" d="M165.9,239.6l5.8,3.3c0.3,0.2,0.3,0.5-0.1,0.8l-2.5,1.4c-0.4,0.2-1,0.3-1.3,0.1l-5.8-3.3
				c-0.3-0.2-0.3-0.5,0.1-0.8l2.5-1.4C165,239.4,165.6,239.4,165.9,239.6z"/>
			<path class="st2" d="M157.9,235l5.8,3.3c0.3,0.2,0.3,0.5-0.1,0.8l-2.5,1.4c-0.4,0.2-1,0.3-1.3,0.1l-5.8-3.3
				c-0.3-0.2-0.3-0.5,0.1-0.8l2.5-1.4C156.9,234.8,157.5,234.8,157.9,235z"/>
			<path class="st2" d="M170.3,237l5.8,3.3c0.3,0.2,0.3,0.5-0.1,0.8l-2.5,1.4c-0.4,0.2-1,0.3-1.3,0.1l-5.8-3.3
				c-0.3-0.2-0.3-0.5,0.1-0.8l2.5-1.4C169.4,236.9,170,236.8,170.3,237z"/>
		</g>
	</g>
</g>
<g>
	<path class="st7" d="M264.2,103.1v85.3c0,2.9-2,4.1-4.5,2.6l-115.2-66.5c-2.5-1.4-4.5-5-4.5-7.9V31.3L264.2,103.1z"/>
</g>
<g>
	<g>
		<g>
			<g>
				<g>
					<path class="st3" d="M254.5,112.5v85.3c0,2.9-2,4.1-4.5,2.6l-115.2-66.5c-2.5-1.4-4.5-5-4.5-7.9V40.7L254.5,112.5z"/>
				</g>
				<g>
					<path class="st3" d="M130.2,23.8v16.9l124.3,71.8V95.6c0-2.9-2-6.4-4.5-7.9L134.7,21.2C132.2,19.7,130.2,20.9,130.2,23.8z
						 M242.6,89.1c0-1.2,0.8-1.7,1.9-1.1c1,0.6,1.9,2.1,1.9,3.2c0,1.2-0.8,1.7-1.9,1.1C243.4,91.7,242.6,90.3,242.6,89.1z
						 M237.4,86.1c0-1.2,0.8-1.7,1.9-1.1c1,0.6,1.9,2.1,1.9,3.2c0,1.2-0.8,1.7-1.9,1.1C238.2,88.7,237.4,87.3,237.4,86.1z
						 M226.1,79.5c0-1.2,0.8-1.7,1.9-1.1c1,0.6,1.9,2.1,1.9,3.2c0,1.2-0.8,1.7-1.9,1.1C226.9,82.2,226.1,80.7,226.1,79.5z
						 M220.9,76.5c0-1.2,0.8-1.7,1.9-1.1c1,0.6,1.9,2.1,1.9,3.2c0,1.2-0.8,1.7-1.9,1.1C221.7,79.2,220.9,77.7,220.9,76.5z M209.6,70
						c0-1.2,0.8-1.7,1.9-1.1c1,0.6,1.9,2.1,1.9,3.2c0,1.2-0.8,1.7-1.9,1.1C210.4,72.7,209.6,71.2,209.6,70z M204.4,67
						c0-1.2,0.8-1.7,1.9-1.1c1,0.6,1.9,2.1,1.9,3.2c0,1.2-0.8,1.7-1.9,1.1C205.2,69.7,204.4,68.2,204.4,67z M193.1,60.5
						c0-1.2,0.8-1.7,1.9-1.1c1,0.6,1.9,2.1,1.9,3.2c0,1.2-0.8,1.7-1.9,1.1C193.9,63.1,193.1,61.7,193.1,60.5z M187.9,57.5
						c0-1.2,0.8-1.7,1.9-1.1c1,0.6,1.9,2.1,1.9,3.2c0,1.2-0.8,1.7-1.9,1.1C188.7,60.1,187.9,58.7,187.9,57.5z M176.6,50.9
						c0-1.2,0.8-1.7,1.9-1.1c1,0.6,1.9,2.1,1.9,3.2c0,1.2-0.8,1.7-1.9,1.1C177.4,53.6,176.6,52.1,176.6,50.9z M171.4,48
						c0-1.2,0.8-1.7,1.9-1.1c1,0.6,1.9,2.1,1.9,3.2c0,1.2-0.8,1.7-1.9,1.1C172.2,50.6,171.4,49.1,171.4,48z M160,41.4
						c0-1.2,0.8-1.7,1.9-1.1c1,0.6,1.9,2.1,1.9,3.2c0,1.2-0.8,1.7-1.9,1.1C160.9,44.1,160,42.6,160,41.4z M154.9,38.4
						c0-1.2,0.8-1.7,1.9-1.1c1,0.6,1.9,2.1,1.9,3.2c0,1.2-0.8,1.7-1.9,1.1C155.7,41.1,154.9,39.6,154.9,38.4z M143.5,31.9
						c0-1.2,0.8-1.7,1.9-1.1c1,0.6,1.9,2.1,1.9,3.2c0,1.2-0.8,1.7-1.9,1.1C144.4,34.5,143.5,33.1,143.5,31.9z M138.3,28.9
						c0-1.2,0.8-1.7,1.9-1.1c1,0.6,1.9,2.1,1.9,3.2c0,1.2-0.8,1.7-1.9,1.1C139.2,31.5,138.3,30.1,138.3,28.9z"/>
				</g>
				<g>
					<path class="st8" d="M149.1,45.9l86.5,49.9c0.7,0.4,1.2,0,1.2-0.9l0,0c0-0.9-0.6-2-1.2-2.4l-86.5-49.9c-0.7-0.4-1.2,0-1.2,0.9
						l0,0C147.8,44.4,148.4,45.5,149.1,45.9z"/>
				</g>
				<g>
					<g>
						<polygon class="st2" points="147.3,75.2 156.2,80.3 156.2,72.8 147.3,67.7 						"/>
					</g>
					<g>
						<polygon class="st2" points="160.9,83 169.7,88.1 169.7,80.6 160.9,75.5 						"/>
					</g>
					<g>
						<polygon class="st2" points="147.3,87.4 156.2,92.5 156.2,85 147.3,79.9 						"/>
					</g>
					<g>
						<polygon class="st2" points="160.9,95.2 169.7,100.3 169.7,92.8 160.9,87.7 						"/>
					</g>
					<g>
						<polygon class="st9" points="174.4,103 183.2,108.1 183.2,100.6 174.4,95.5 						"/>
					</g>
					<g>
						<polygon class="st9" points="187.9,110.8 196.8,115.9 196.8,108.5 187.9,103.3 						"/>
					</g>
					<g>
						<polygon class="st9" points="201.4,118.7 210.3,123.8 210.3,116.3 201.4,111.2 						"/>
					</g>
					<g>
						<polygon class="st9" points="215,126.5 223.8,131.6 223.8,124.1 215,119 						"/>
					</g>
					<g>
						<polygon class="st9" points="228.5,134.3 237.4,139.4 237.4,131.9 228.5,126.8 						"/>
					</g>
					<g>
						<polygon class="st2" points="147.3,99.6 156.2,104.7 156.2,97.3 147.3,92.1 						"/>
					</g>
					<g>
						<polygon class="st2" points="160.9,107.4 169.7,112.6 169.7,105.1 160.9,100 						"/>
					</g>
					<g>
						<polygon class="st9" points="174.4,115.3 183.2,120.4 183.2,112.9 174.4,107.8 						"/>
					</g>
					<g>
						<polygon class="st9" points="187.9,123.1 196.8,128.2 196.8,120.7 187.9,115.6 						"/>
					</g>
					<g>
						<polygon class="st9" points="201.4,130.9 210.3,136 210.3,128.5 201.4,123.4 						"/>
					</g>
					<g>
						<polygon class="st9" points="215,138.7 223.8,143.8 223.8,136.3 215,131.2 						"/>
					</g>
					<g>
						<polygon class="st9" points="228.5,146.5 237.4,151.6 237.4,144.1 228.5,139 						"/>
					</g>
					<g>
						<polygon class="st2" points="147.3,111.9 156.2,117 156.2,109.5 147.3,104.4 						"/>
					</g>
					<g>
						<polygon class="st2" points="160.9,119.7 169.7,124.8 169.7,117.3 160.9,112.2 						"/>
					</g>
					<g>
						<polygon class="st9" points="174.4,127.5 183.2,132.6 183.2,125.1 174.4,120 						"/>
					</g>
					<g>
						<polygon class="st9" points="187.9,135.3 196.8,140.4 196.8,132.9 187.9,127.8 						"/>
					</g>
					<g>
						<polygon class="st9" points="201.4,143.1 210.3,148.2 210.3,140.7 201.4,135.6 						"/>
					</g>
					<g>
						<polygon class="st9" points="215,150.9 223.8,156 223.8,148.5 215,143.4 						"/>
					</g>
					<g>
						<polygon class="st9" points="228.5,158.7 237.4,163.8 237.4,156.4 228.5,151.2 						"/>
					</g>
					<g>
						<polygon class="st2" points="147.3,124.1 156.2,129.2 156.2,121.7 147.3,116.6 						"/>
					</g>
					<g>
						<polygon class="st2" points="160.9,131.9 169.7,137 169.7,129.5 160.9,124.4 						"/>
					</g>
					<g>
						<polygon class="st9" points="174.4,139.7 183.2,144.8 183.2,137.3 174.4,132.2 						"/>
					</g>
					<g>
						<polygon class="st9" points="187.9,147.5 196.8,152.6 196.8,145.2 187.9,140 						"/>
					</g>
					<g>
						<polygon class="st9" points="201.4,155.3 210.3,160.5 210.3,153 201.4,147.9 						"/>
					</g>
					<g>
						<polygon class="st9" points="215,163.2 223.8,168.3 223.8,160.8 215,155.7 						"/>
					</g>
					<g>
						<polygon class="st9" points="228.5,171 237.4,176.1 237.4,168.6 228.5,163.5 						"/>
					</g>
				</g>
			</g>
			<g>
				<polygon class="st9" points="251.9,201.5 253.2,200.7 251.8,200.4 				"/>
			</g>
			<g>
				<g>
					<path class="st4" d="M253.2,113.3v85.3c0,2.9-2,4.1-4.5,2.6l-115.2-66.5c-2.5-1.4-4.5-5-4.5-7.9V41.5L253.2,113.3z"/>
				</g>
				<g>
					<g>
						<path class="st3" d="M242.4,88.5c-0.1,0.2-0.2,0.5-0.2,0.8c0,1.2,0.8,2.7,1.9,3.3c0.3,0.2,0.5,0.2,0.8,0.2
							c-0.3,0.5-0.9,0.7-1.7,0.2c-1-0.6-1.9-2.1-1.9-3.3C241.3,89,241.8,88.5,242.4,88.5z"/>
					</g>
					<g>
						<path class="st3" d="M237.2,85.5c-0.1,0.2-0.2,0.5-0.2,0.8c0,1.2,0.8,2.7,1.9,3.3c0.3,0.2,0.5,0.2,0.8,0.2
							c-0.3,0.5-0.9,0.7-1.7,0.2c-1-0.6-1.9-2.1-1.9-3.3C236.1,86,236.6,85.5,237.2,85.5z"/>
					</g>
					<g>
						<path class="st3" d="M225.9,79c-0.1,0.2-0.2,0.5-0.2,0.8c0,1.2,0.8,2.7,1.9,3.3c0.3,0.2,0.5,0.2,0.8,0.2
							c-0.3,0.5-0.9,0.7-1.7,0.2c-1-0.6-1.9-2.1-1.9-3.3C224.8,79.4,225.3,78.9,225.9,79z"/>
					</g>
					<g>
						<path class="st3" d="M220.7,76c-0.1,0.2-0.2,0.5-0.2,0.8c0,1.2,0.8,2.7,1.9,3.3c0.3,0.2,0.5,0.2,0.8,0.2
							c-0.3,0.5-0.9,0.7-1.7,0.2c-1-0.6-1.9-2.1-1.9-3.3C219.6,76.4,220.1,75.9,220.7,76z"/>
					</g>
					<g>
						<path class="st3" d="M209.4,69.4c-0.1,0.2-0.2,0.5-0.2,0.8c0,1.2,0.8,2.7,1.9,3.3c0.3,0.2,0.5,0.2,0.8,0.2
							c-0.3,0.5-0.9,0.7-1.7,0.2c-1-0.6-1.9-2.1-1.9-3.3C208.3,69.9,208.7,69.4,209.4,69.4z"/>
					</g>
					<g>
						<path class="st3" d="M204.2,66.4c-0.1,0.2-0.2,0.5-0.2,0.8c0,1.2,0.8,2.7,1.9,3.3c0.3,0.2,0.5,0.2,0.8,0.2
							c-0.3,0.5-0.9,0.7-1.7,0.2c-1-0.6-1.9-2.1-1.9-3.3C203.1,66.9,203.6,66.4,204.2,66.4z"/>
					</g>
					<g>
						<path class="st3" d="M192.9,59.9c-0.1,0.2-0.2,0.5-0.2,0.8c0,1.2,0.8,2.7,1.9,3.3c0.3,0.2,0.5,0.2,0.8,0.2
							c-0.3,0.5-0.9,0.7-1.7,0.2c-1-0.6-1.9-2.1-1.9-3.3C191.8,60.4,192.2,59.9,192.9,59.9z"/>
					</g>
					<g>
						<path class="st3" d="M187.7,56.9c-0.1,0.2-0.2,0.5-0.2,0.8c0,1.2,0.8,2.7,1.9,3.3c0.3,0.2,0.5,0.2,0.8,0.2
							c-0.3,0.5-0.9,0.7-1.7,0.2c-1-0.6-1.9-2.1-1.9-3.3C186.6,57.4,187,56.9,187.7,56.9z"/>
					</g>
					<g>
						<path class="st3" d="M176.4,50.4c-0.1,0.2-0.2,0.5-0.2,0.8c0,1.2,0.8,2.7,1.9,3.3c0.3,0.2,0.5,0.2,0.8,0.2
							c-0.3,0.5-0.9,0.7-1.7,0.2c-1-0.6-1.9-2.1-1.9-3.3C175.3,50.8,175.7,50.3,176.4,50.4z"/>
					</g>
					<g>
						<path class="st3" d="M171.2,47.4c-0.1,0.2-0.2,0.5-0.2,0.8c0,1.2,0.8,2.7,1.9,3.3c0.3,0.2,0.5,0.2,0.8,0.2
							c-0.3,0.5-0.9,0.7-1.7,0.2c-1-0.6-1.9-2.1-1.9-3.3C170.1,47.8,170.5,47.3,171.2,47.4z"/>
					</g>
					<g>
						<path class="st3" d="M159.9,40.8c-0.1,0.2-0.2,0.5-0.2,0.8c0,1.2,0.8,2.7,1.9,3.3c0.3,0.2,0.5,0.2,0.8,0.2
							c-0.3,0.5-0.9,0.7-1.7,0.2c-1-0.6-1.9-2.1-1.9-3.3C158.8,41.3,159.2,40.8,159.9,40.8z"/>
					</g>
					<g>
						<path class="st3" d="M154.7,37.8c-0.1,0.2-0.2,0.5-0.2,0.8c0,1.2,0.8,2.7,1.9,3.3c0.3,0.2,0.5,0.2,0.8,0.2
							c-0.3,0.5-0.9,0.7-1.7,0.2c-1-0.6-1.9-2.1-1.9-3.3C153.6,38.3,154,37.8,154.7,37.8z"/>
					</g>
					<g>
						<path class="st3" d="M143.4,31.3c-0.1,0.2-0.2,0.5-0.2,0.8c0,1.2,0.8,2.7,1.9,3.3c0.3,0.2,0.5,0.2,0.8,0.2
							c-0.3,0.5-0.9,0.7-1.7,0.2c-1-0.6-1.9-2.1-1.9-3.3C142.3,31.8,142.7,31.3,143.4,31.3z"/>
					</g>
					<g>
						<path class="st3" d="M138.2,28.3c-0.1,0.2-0.2,0.5-0.2,0.8c0,1.2,0.8,2.7,1.9,3.3c0.3,0.2,0.5,0.2,0.8,0.2
							c-0.3,0.5-0.9,0.7-1.7,0.2c-1-0.6-1.9-2.1-1.9-3.3C137.1,28.8,137.5,28.3,138.2,28.3z"/>
					</g>
				</g>
				<g>
					<path class="st2" d="M128.9,24.6v16.9l124.3,71.8V96.3c0-2.9-2-6.4-4.5-7.9L133.5,22C131,20.5,128.9,21.7,128.9,24.6z
						 M241.3,89.8c0-1.2,0.8-1.7,1.9-1.1c1,0.6,1.9,2.1,1.9,3.2c0,1.2-0.8,1.7-1.9,1.1C242.2,92.5,241.3,91,241.3,89.8z M236.1,86.8
						c0-1.2,0.8-1.7,1.9-1.1c1,0.6,1.9,2.1,1.9,3.2c0,1.2-0.8,1.7-1.9,1.1C237,89.5,236.1,88,236.1,86.8z M224.8,80.3
						c0-1.2,0.8-1.7,1.9-1.1c1,0.6,1.9,2.1,1.9,3.2s-0.8,1.7-1.9,1.1C225.6,83,224.8,81.5,224.8,80.3z M219.6,77.3
						c0-1.2,0.8-1.7,1.9-1.1c1,0.6,1.9,2.1,1.9,3.2c0,1.2-0.8,1.7-1.9,1.1C220.5,80,219.6,78.5,219.6,77.3z M208.3,70.8
						c0-1.2,0.8-1.7,1.9-1.1c1,0.6,1.9,2.1,1.9,3.2c0,1.2-0.8,1.7-1.9,1.1C209.1,73.4,208.3,72,208.3,70.8z M203.1,67.8
						c0-1.2,0.8-1.7,1.9-1.1c1,0.6,1.9,2.1,1.9,3.2c0,1.2-0.8,1.7-1.9,1.1C203.9,70.4,203.1,69,203.1,67.8z M191.8,61.2
						c0-1.2,0.8-1.7,1.9-1.1c1,0.6,1.9,2.1,1.9,3.2c0,1.2-0.8,1.7-1.9,1.1C192.6,63.9,191.8,62.4,191.8,61.2z M186.6,58.2
						c0-1.2,0.8-1.7,1.9-1.1c1,0.6,1.9,2.1,1.9,3.2c0,1.2-0.8,1.7-1.9,1.1C187.4,60.9,186.6,59.4,186.6,58.2z M175.3,51.7
						c0-1.2,0.8-1.7,1.9-1.1c1,0.6,1.9,2.1,1.9,3.2c0,1.2-0.8,1.7-1.9,1.1C176.1,54.4,175.3,52.9,175.3,51.7z M170.1,48.7
						c0-1.2,0.8-1.7,1.9-1.1c1,0.6,1.9,2.1,1.9,3.2c0,1.2-0.8,1.7-1.9,1.1C170.9,51.4,170.1,49.9,170.1,48.7z M158.8,42.2
						c0-1.2,0.8-1.7,1.9-1.1c1,0.6,1.9,2.1,1.9,3.2c0,1.2-0.8,1.7-1.9,1.1C159.6,44.8,158.8,43.4,158.8,42.2z M153.6,39.2
						c0-1.2,0.8-1.7,1.9-1.1c1,0.6,1.9,2.1,1.9,3.2c0,1.2-0.8,1.7-1.9,1.1C154.4,41.8,153.6,40.4,153.6,39.2z M142.3,32.7
						c0-1.2,0.8-1.7,1.9-1.1c1,0.6,1.9,2.1,1.9,3.2s-0.8,1.7-1.9,1.1C143.1,35.3,142.3,33.8,142.3,32.7z M137.1,29.7
						c0-1.2,0.8-1.7,1.9-1.1c1,0.6,1.9,2.1,1.9,3.2c0,1.2-0.8,1.7-1.9,1.1C137.9,32.3,137.1,30.8,137.1,29.7z"/>
				</g>
				<g>
					<path class="st3" d="M147.8,46.7l86.5,49.9c0.7,0.4,1.2,0,1.2-0.9l0,0c0-0.9-0.6-2-1.2-2.4l-86.5-49.9c-0.7-0.4-1.2,0-1.2,0.9
						l0,0C146.6,45.2,147.1,46.3,147.8,46.7z"/>
				</g>
				<g>
					<g>
						<polygon class="st2" points="146.1,75.9 154.9,81 154.9,73.6 146.1,68.4 						"/>
					</g>
					<g>
						<polygon class="st2" points="159.6,83.8 168.4,88.9 168.4,81.4 159.6,76.3 						"/>
					</g>
					<g>
						<polygon class="st2" points="146.1,88.2 154.9,93.3 154.9,85.8 146.1,80.7 						"/>
					</g>
					<g>
						<polygon class="st2" points="159.6,96 168.4,101.1 168.4,93.6 159.6,88.5 						"/>
					</g>
					<g>
						<polygon class="st6" points="173.1,103.8 182,108.9 182,101.4 173.1,96.3 						"/>
					</g>
					<g>
						<polygon class="st6" points="186.6,111.6 195.5,116.7 195.5,109.2 186.6,104.1 						"/>
					</g>
					<g>
						<polygon class="st6" points="200.2,119.4 209,124.5 209,117 200.2,111.9 						"/>
					</g>
					<g>
						<polygon class="st6" points="213.7,127.2 222.6,132.3 222.6,124.8 213.7,119.7 						"/>
					</g>
					<g>
						<polygon class="st6" points="227.2,135 236.1,140.1 236.1,132.7 227.2,127.5 						"/>
					</g>
					<g>
						<polygon class="st2" points="146.1,100.4 154.9,105.5 154.9,98 146.1,92.9 						"/>
					</g>
					<g>
						<polygon class="st2" points="159.6,108.2 168.4,113.3 168.4,105.8 159.6,100.7 						"/>
					</g>
					<g>
						<polygon class="st6" points="173.1,116 182,121.1 182,113.6 173.1,108.5 						"/>
					</g>
					<g>
						<polygon class="st6" points="186.6,123.8 195.5,128.9 195.5,121.5 186.6,116.3 						"/>
					</g>
					<g>
						<polygon class="st6" points="200.2,131.6 209,136.8 209,129.3 200.2,124.2 						"/>
					</g>
					<g>
						<polygon class="st6" points="213.7,139.5 222.6,144.6 222.6,137.1 213.7,132 						"/>
					</g>
					<g>
						<polygon class="st6" points="227.2,147.3 236.1,152.4 236.1,144.9 227.2,139.8 						"/>
					</g>
					<g>
						<polygon class="st2" points="146.1,112.6 154.9,117.7 154.9,110.3 146.1,105.1 						"/>
					</g>
					<g>
						<polygon class="st2" points="159.6,120.4 168.4,125.6 168.4,118.1 159.6,113 						"/>
					</g>
					<g>
						<polygon class="st6" points="173.1,128.3 182,133.4 182,125.9 173.1,120.8 						"/>
					</g>
					<g>
						<polygon class="st6" points="186.6,136.1 195.5,141.2 195.5,133.7 186.6,128.6 						"/>
					</g>
					<g>
						<polygon class="st6" points="200.2,143.9 209,149 209,141.5 200.2,136.4 						"/>
					</g>
					<g>
						<polygon class="st6" points="213.7,151.7 222.6,156.8 222.6,149.3 213.7,144.2 						"/>
					</g>
					<g>
						<polygon class="st6" points="227.2,159.5 236.1,164.6 236.1,157.1 227.2,152 						"/>
					</g>
					<g>
						<polygon class="st2" points="146.1,124.9 154.9,130 154.9,122.5 146.1,117.4 						"/>
					</g>
					<g>
						<polygon class="st2" points="159.6,132.7 168.4,137.8 168.4,130.3 159.6,125.2 						"/>
					</g>
					<g>
						<polygon class="st6" points="173.1,140.5 182,145.6 182,138.1 173.1,133 						"/>
					</g>
					<g>
						<polygon class="st6" points="186.6,148.3 195.5,153.4 195.5,145.9 186.6,140.8 						"/>
					</g>
					<g>
						<polygon class="st6" points="200.2,156.1 209,161.2 209,153.7 200.2,148.6 						"/>
					</g>
					<g>
						<polygon class="st6" points="213.7,163.9 222.6,169 222.6,161.5 213.7,156.4 						"/>
					</g>
					<g>
						<polygon class="st6" points="227.2,171.7 236.1,176.8 236.1,169.4 227.2,164.2 						"/>
					</g>
				</g>
			</g>
			<g>
				<g>
					<path class="st4" d="M234.7,83.7c0,4.1,2.9,5.8,6.5,3.7c3.6-2.1,6.5-7.1,6.5-11.2c0-4.1-2.9-5.8-6.5-3.7
						C237.6,74.6,234.7,79.6,234.7,83.7z M236.1,82.9c0-3.2,2.3-7.2,5.1-8.8c2.8-1.6,5.1-0.3,5.1,2.9c0,3.2-2.3,7.2-5.1,8.8
						C238.3,87.5,236.1,86.2,236.1,82.9z"/>
				</g>
				<g>
					<polygon class="st4" points="237.2,88.4 236.5,87.9 237.1,88 					"/>
				</g>
				<g>
					<polygon class="st4" points="246,72.2 247,72.9 246.1,73.2 					"/>
				</g>
				<g>
					<path class="st3" d="M235.6,84.4c0,4.1,2.9,5.8,6.5,3.7c3.6-2.1,6.5-7.1,6.5-11.2c0-4.1-2.9-5.8-6.5-3.7
						C238.5,75.2,235.6,80.2,235.6,84.4z M237,83.6c0-3.2,2.3-7.2,5.1-8.8c2.8-1.6,5.1-0.3,5.1,2.9c0,3.2-2.3,7.2-5.1,8.8
						C239.2,88.1,237,86.8,237,83.6z"/>
				</g>
			</g>
			<g>
				<polygon class="st3" points="242.3,84.9 243.3,83.8 246,85.4 244.3,86.4 				"/>
			</g>
			<g>
				<path class="st2" d="M242.3,84.8l2.5,1.5l-1.7,1.7l-3.2,1.4c0,0,0.2-1.4-1.1-3L242.3,84.8z"/>
			</g>
			<g>
				<g>
					<path class="st4" d="M218.2,74.2c0,4.1,2.9,5.8,6.5,3.7c3.6-2.1,6.5-7.1,6.5-11.2s-2.9-5.8-6.5-3.7
						C221.1,65,218.2,70.1,218.2,74.2z M219.5,73.4c0-3.2,2.3-7.2,5.1-8.8c2.8-1.6,5.1-0.3,5.1,2.9c0,3.2-2.3,7.2-5.1,8.8
						C221.8,77.9,219.5,76.6,219.5,73.4z"/>
				</g>
				<g>
					<polygon class="st4" points="220.7,78.8 220,78.3 220.6,78.5 					"/>
				</g>
				<g>
					<polygon class="st4" points="229.5,62.7 230.4,63.4 229.6,63.6 					"/>
				</g>
				<g>
					<path class="st3" d="M219.1,74.8c0,4.1,2.9,5.8,6.5,3.7c3.6-2.1,6.5-7.1,6.5-11.2c0-4.1-2.9-5.8-6.5-3.7
						C222,65.7,219.1,70.7,219.1,74.8z M220.4,74c0-3.2,2.3-7.2,5.1-8.8c2.8-1.6,5.1-0.3,5.1,2.9c0,3.2-2.3,7.2-5.1,8.8
						S220.4,77.3,220.4,74z"/>
				</g>
			</g>
			<g>
				<polygon class="st3" points="225.8,75.4 226.7,74.3 229.5,75.9 227.7,76.8 				"/>
			</g>
			<g>
				<path class="st2" d="M225.7,75.2l2.5,1.5l-1.7,1.7l-3.2,1.4c0,0,0.2-1.4-1.1-3L225.7,75.2z"/>
			</g>
			<g>
				<g>
					<path class="st4" d="M223.4,77.2c0,4.1,2.9,5.8,6.5,3.7c3.6-2.1,6.5-7.1,6.5-11.2c0-4.1-2.9-5.8-6.5-3.7
						C226.3,68,223.4,73.1,223.4,77.2z M224.7,76.4c0-3.2,2.3-7.2,5.1-8.8c2.8-1.6,5.1-0.3,5.1,2.9c0,3.2-2.3,7.2-5.1,8.8
						C227,81,224.7,79.6,224.7,76.4z"/>
				</g>
				<g>
					<polygon class="st4" points="225.9,81.9 225.2,81.3 225.8,81.5 					"/>
				</g>
				<g>
					<polygon class="st4" points="234.7,65.7 235.6,66.4 234.8,66.6 					"/>
				</g>
				<g>
					<path class="st3" d="M224.3,77.8c0,4.1,2.9,5.8,6.5,3.7c3.6-2.1,6.5-7.1,6.5-11.2c0-4.1-2.9-5.8-6.5-3.7
						C227.2,68.7,224.3,73.7,224.3,77.8z M225.6,77c0-3.2,2.3-7.2,5.1-8.8c2.8-1.6,5.1-0.3,5.1,2.9c0,3.2-2.3,7.2-5.1,8.8
						C227.9,81.6,225.6,80.3,225.6,77z"/>
				</g>
			</g>
			<g>
				<polygon class="st3" points="231,78.4 231.9,77.3 234.7,78.9 232.9,79.8 				"/>
			</g>
			<g>
				<path class="st2" d="M230.9,78.2l2.5,1.5l-1.7,1.7l-3.2,1.4c0,0,0.2-1.4-1.1-3L230.9,78.2z"/>
			</g>
			<g>
				<g>
					<path class="st4" d="M201.6,64.6c0,4.1,2.9,5.8,6.5,3.7c3.6-2.1,6.5-7.1,6.5-11.2c0-4.1-2.9-5.8-6.5-3.7
						C204.5,55.5,201.6,60.5,201.6,64.6z M203,63.8c0-3.2,2.3-7.2,5.1-8.8c2.8-1.6,5.1-0.3,5.1,2.9c0,3.2-2.3,7.2-5.1,8.8
						C205.3,68.4,203,67.1,203,63.8z"/>
				</g>
				<g>
					<polygon class="st4" points="204.2,69.3 203.4,68.8 204,68.9 					"/>
				</g>
				<g>
					<polygon class="st4" points="212.9,53.1 213.9,53.8 213.1,54.1 					"/>
				</g>
				<g>
					<path class="st3" d="M202.5,65.3c0,4.1,2.9,5.8,6.5,3.7c3.6-2.1,6.5-7.1,6.5-11.2c0-4.1-2.9-5.8-6.5-3.7S202.5,61.1,202.5,65.3
						z M203.9,64.5c0-3.2,2.3-7.2,5.1-8.8c2.8-1.6,5.1-0.3,5.1,2.9c0,3.2-2.3,7.2-5.1,8.8C206.2,69,203.9,67.7,203.9,64.5z"/>
				</g>
			</g>
			<g>
				<polygon class="st3" points="209.3,65.8 210.2,64.7 213,66.4 211.2,67.3 				"/>
			</g>
			<g>
				<path class="st2" d="M209.2,65.7l2.5,1.4l-1.7,1.7l-3.2,1.4c0,0,0.2-1.4-1.1-3L209.2,65.7z"/>
			</g>
			<g>
				<g>
					<path class="st4" d="M206.8,67.6c0,4.1,2.9,5.8,6.5,3.7c3.6-2.1,6.5-7.1,6.5-11.2c0-4.1-2.9-5.8-6.5-3.7
						C209.7,58.5,206.8,63.5,206.8,67.6z M208.2,66.8c0-3.2,2.3-7.2,5.1-8.8c2.8-1.6,5.1-0.3,5.1,2.9s-2.3,7.2-5.1,8.8
						S208.2,70.1,208.2,66.8z"/>
				</g>
				<g>
					<polygon class="st4" points="209.4,72.3 208.6,71.8 209.2,71.9 					"/>
				</g>
				<g>
					<polygon class="st4" points="218.1,56.1 219.1,56.8 218.3,57.1 					"/>
				</g>
				<g>
					<path class="st3" d="M207.7,68.3c0,4.1,2.9,5.8,6.5,3.7c3.6-2.1,6.5-7.1,6.5-11.2c0-4.1-2.9-5.8-6.5-3.7
						C210.6,59.1,207.7,64.1,207.7,68.3z M209.1,67.5c0-3.2,2.3-7.2,5.1-8.8c2.8-1.6,5.1-0.3,5.1,2.9c0,3.2-2.3,7.2-5.1,8.8
						C211.4,72,209.1,70.7,209.1,67.5z"/>
				</g>
			</g>
			<g>
				<polygon class="st3" points="214.5,68.8 215.4,67.7 218.2,69.3 216.4,70.3 				"/>
			</g>
			<g>
				<path class="st2" d="M214.4,68.7l2.5,1.5l-1.7,1.7l-3.2,1.4c0,0,0.2-1.4-1.1-3L214.4,68.7z"/>
			</g>
			<g>
				<g>
					<path class="st4" d="M185.1,55.1c0,4.1,2.9,5.8,6.5,3.7c3.6-2.1,6.5-7.1,6.5-11.2c0-4.1-2.9-5.8-6.5-3.7
						C188,45.9,185.1,50.9,185.1,55.1z M186.5,54.3c0-3.2,2.3-7.2,5.1-8.8c2.8-1.6,5.1-0.3,5.1,2.9c0,3.2-2.3,7.2-5.1,8.8
						C188.8,58.8,186.5,57.5,186.5,54.3z"/>
				</g>
				<g>
					<polygon class="st4" points="187.6,59.7 186.9,59.2 187.5,59.3 					"/>
				</g>
				<g>
					<polygon class="st4" points="196.4,43.5 197.4,44.3 196.6,44.5 					"/>
				</g>
				<g>
					<path class="st3" d="M186,55.7c0,4.1,2.9,5.8,6.5,3.7c3.6-2.1,6.5-7.1,6.5-11.2s-2.9-5.8-6.5-3.7C188.9,46.6,186,51.6,186,55.7
						z M187.4,54.9c0-3.2,2.3-7.2,5.1-8.8c2.8-1.6,5.1-0.3,5.1,2.9c0,3.2-2.3,7.2-5.1,8.8C189.7,59.5,187.4,58.2,187.4,54.9z"/>
				</g>
			</g>
			<g>
				<polygon class="st3" points="192.7,56.2 193.7,55.2 196.4,56.8 194.7,57.7 				"/>
			</g>
			<g>
				<path class="st2" d="M192.6,56.1l2.6,1.5l-1.7,1.7l-3.2,1.4c0,0,0.2-1.4-1.2-2.9L192.6,56.1z"/>
			</g>
			<g>
				<g>
					<path class="st4" d="M190.3,58.1c0,4.1,2.9,5.8,6.5,3.7c3.6-2.1,6.5-7.1,6.5-11.2c0-4.1-2.9-5.8-6.5-3.7
						C193.2,48.9,190.3,53.9,190.3,58.1z M191.7,57.3c0-3.2,2.3-7.2,5.1-8.8c2.8-1.6,5.1-0.3,5.1,2.9c0,3.2-2.3,7.2-5.1,8.8
						C194,61.8,191.7,60.5,191.7,57.3z"/>
				</g>
				<g>
					<polygon class="st4" points="192.8,62.7 192.1,62.2 192.7,62.3 					"/>
				</g>
				<g>
					<polygon class="st4" points="201.6,46.5 202.6,47.3 201.8,47.5 					"/>
				</g>
				<g>
					<path class="st3" d="M191.2,58.7c0,4.1,2.9,5.8,6.5,3.7c3.6-2.1,6.5-7.1,6.5-11.2c0-4.1-2.9-5.8-6.5-3.7
						C194.1,49.6,191.2,54.6,191.2,58.7z M192.6,57.9c0-3.2,2.3-7.2,5.1-8.8s5.1-0.3,5.1,2.9c0,3.2-2.3,7.2-5.1,8.8
						C194.9,62.5,192.6,61.2,192.6,57.9z"/>
				</g>
			</g>
			<g>
				<polygon class="st3" points="197.9,59.2 198.9,58.2 201.6,59.8 199.9,60.7 				"/>
			</g>
			<g>
				<path class="st2" d="M197.9,59.1l2.5,1.5l-1.7,1.7l-3.2,1.4c0,0,0.2-1.4-1.1-3L197.9,59.1z"/>
			</g>
			<g>
				<g>
					<path class="st4" d="M168.6,45.5c0,4.1,2.9,5.8,6.5,3.7c3.6-2.1,6.5-7.1,6.5-11.2c0-4.1-2.9-5.8-6.5-3.7
						C171.5,36.3,168.6,41.4,168.6,45.5z M170,44.7c0-3.2,2.3-7.2,5.1-8.8c2.8-1.6,5.1-0.3,5.1,2.9c0,3.2-2.3,7.2-5.1,8.8
						C172.3,49.3,170,47.9,170,44.7z"/>
				</g>
				<g>
					<polygon class="st4" points="171.1,50.2 170.4,49.6 171,49.8 					"/>
				</g>
				<g>
					<polygon class="st4" points="179.9,34 180.9,34.7 180.1,34.9 					"/>
				</g>
				<g>
					<path class="st3" d="M169.5,46.1c0,4.1,2.9,5.8,6.5,3.7c3.6-2.1,6.5-7.1,6.5-11.2c0-4.1-2.9-5.8-6.5-3.7
						C172.4,37,169.5,42,169.5,46.1z M170.9,45.3c0-3.2,2.3-7.2,5.1-8.8c2.8-1.6,5.1-0.3,5.1,2.9c0,3.2-2.3,7.2-5.1,8.8
						C173.1,49.9,170.9,48.6,170.9,45.3z"/>
				</g>
			</g>
			<g>
				<polygon class="st3" points="176.2,46.7 177.1,45.7 179.9,47.3 178.2,48.1 				"/>
			</g>
			<g>
				<path class="st2" d="M176.1,46.6l2.6,1.5l-1.7,1.6l-3.1,1.4c0,0,0.1-1.3-1.2-2.9L176.1,46.6z"/>
			</g>
			<g>
				<g>
					<path class="st4" d="M173.8,48.5c0,4.1,2.9,5.8,6.5,3.7c3.6-2.1,6.5-7.1,6.5-11.2c0-4.1-2.9-5.8-6.5-3.7
						C176.7,39.3,173.8,44.4,173.8,48.5z M175.2,47.7c0-3.2,2.3-7.2,5.1-8.8c2.8-1.6,5.1-0.3,5.1,2.9c0,3.2-2.3,7.2-5.1,8.8
						C177.5,52.3,175.2,50.9,175.2,47.7z"/>
				</g>
				<g>
					<polygon class="st4" points="176.3,53.2 175.6,52.6 176.2,52.8 					"/>
				</g>
				<g>
					<polygon class="st4" points="185.1,37 186.1,37.7 185.3,37.9 					"/>
				</g>
				<g>
					<path class="st3" d="M174.7,49.1c0,4.1,2.9,5.8,6.5,3.7c3.6-2.1,6.5-7.1,6.5-11.2s-2.9-5.8-6.5-3.7
						C177.6,40,174.7,45,174.7,49.1z M176.1,48.4c0-3.2,2.3-7.2,5.1-8.8c2.8-1.6,5.1-0.3,5.1,2.9s-2.3,7.2-5.1,8.8
						C178.3,52.9,176.1,51.6,176.1,48.4z"/>
				</g>
			</g>
			<g>
				<polygon class="st3" points="181.4,49.7 182.3,48.7 185.1,50.3 183.4,51.1 				"/>
			</g>
			<g>
				<path class="st2" d="M181.3,49.6l2.6,1.5l-1.7,1.7l-3.1,1.4c0,0,0.1-1.4-1.2-2.9L181.3,49.6z"/>
			</g>
			<g>
				<g>
					<path class="st4" d="M152.1,35.9c0,4.1,2.9,5.8,6.5,3.7c3.6-2.1,6.5-7.1,6.5-11.2s-2.9-5.8-6.5-3.7S152.1,31.8,152.1,35.9z
						 M153.5,35.1c0-3.2,2.3-7.2,5.1-8.8c2.8-1.6,5.1-0.3,5.1,2.9c0,3.2-2.3,7.2-5.1,8.8C155.7,39.7,153.5,38.4,153.5,35.1z"/>
				</g>
				<g>
					<polygon class="st4" points="154.6,40.6 153.9,40.1 154.5,40.2 					"/>
				</g>
				<g>
					<polygon class="st4" points="163.4,24.4 164.4,25.1 163.5,25.4 					"/>
				</g>
				<g>
					<path class="st3" d="M153,36.6c0,4.1,2.9,5.8,6.5,3.7c3.6-2.1,6.5-7.1,6.5-11.2c0-4.1-2.9-5.8-6.5-3.7S153,32.5,153,36.6z
						 M154.3,35.8c0-3.2,2.3-7.2,5.1-8.8c2.8-1.6,5.1-0.3,5.1,2.9s-2.3,7.2-5.1,8.8C156.6,40.3,154.3,39,154.3,35.8z"/>
				</g>
			</g>
			<g>
				<polygon class="st3" points="159.7,37.1 160.6,36.1 163.3,37.7 161.7,38.6 				"/>
			</g>
			<g>
				<path class="st2" d="M159.5,37l2.6,1.5l-1.7,1.6l-3.1,1.4c0,0,0.2-1.4-1.2-2.9L159.5,37z"/>
			</g>
			<g>
				<g>
					<path class="st4" d="M157.3,38.9c0,4.1,2.9,5.8,6.5,3.7c3.6-2.1,6.5-7.1,6.5-11.2c0-4.1-2.9-5.8-6.5-3.7
						C160.2,29.8,157.3,34.8,157.3,38.9z M158.7,38.1c0-3.2,2.3-7.2,5.1-8.8c2.8-1.6,5.1-0.3,5.1,2.9c0,3.2-2.3,7.2-5.1,8.8
						C160.9,42.7,158.7,41.4,158.7,38.1z"/>
				</g>
				<g>
					<polygon class="st4" points="159.8,43.6 159.1,43.1 159.7,43.2 					"/>
				</g>
				<g>
					<polygon class="st4" points="168.6,27.4 169.6,28.1 168.7,28.4 					"/>
				</g>
				<g>
					<path class="st3" d="M158.2,39.6c0,4.1,2.9,5.8,6.5,3.7c3.6-2.1,6.5-7.1,6.5-11.2c0-4.1-2.9-5.8-6.5-3.7S158.2,35.5,158.2,39.6
						z M159.5,38.8c0-3.2,2.3-7.2,5.1-8.8c2.8-1.6,5.1-0.3,5.1,2.9c0,3.2-2.3,7.2-5.1,8.8C161.8,43.4,159.5,42,159.5,38.8z"/>
				</g>
			</g>
			<g>
				<polygon class="st3" points="164.9,40.1 165.8,39.1 168.5,40.7 166.9,41.6 				"/>
			</g>
			<g>
				<path class="st2" d="M164.8,40l2.5,1.5l-1.7,1.6l-3.1,1.4c0,0,0.2-1.4-1.2-2.9L164.8,40z"/>
			</g>
			<g>
				<g>
					<path class="st4" d="M135.6,26.4c0,4.1,2.9,5.8,6.5,3.7c3.6-2.1,6.5-7.1,6.5-11.2s-2.9-5.8-6.5-3.7
						C138.4,17.2,135.6,22.2,135.6,26.4z M136.9,25.6c0-3.2,2.3-7.2,5.1-8.8c2.8-1.6,5.1-0.3,5.1,2.9c0,3.2-2.3,7.2-5.1,8.8
						C139.2,30.1,136.9,28.8,136.9,25.6z"/>
				</g>
				<g>
					<polygon class="st4" points="138.1,31 137.3,30.5 138,30.6 					"/>
				</g>
				<g>
					<polygon class="st4" points="146.8,14.9 147.8,15.6 147,15.8 					"/>
				</g>
				<g>
					<path class="st3" d="M136.4,27c0,4.1,2.9,5.8,6.5,3.7c3.6-2.1,6.5-7.1,6.5-11.2c0-4.1-2.9-5.8-6.5-3.7
						C139.3,17.9,136.4,22.9,136.4,27z M137.8,26.2c0-3.2,2.3-7.2,5.1-8.8c2.8-1.6,5.1-0.3,5.1,2.9c0,3.2-2.3,7.2-5.1,8.8
						S137.8,29.5,137.8,26.2z"/>
				</g>
			</g>
			<g>
				<polygon class="st3" points="143.2,27.5 144.1,26.6 146.8,28.1 145.1,29 				"/>
			</g>
			<g>
				<path class="st2" d="M143,27.5l2.5,1.5l-1.6,1.6l-3.1,1.4c0,0,0.1-1.4-1.2-2.9L143,27.5z"/>
			</g>
			<g>
				<g>
					<path class="st4" d="M140.7,29.4c0,4.1,2.9,5.8,6.5,3.7c3.6-2.1,6.5-7.1,6.5-11.2c0-4.1-2.9-5.8-6.5-3.7
						C143.6,20.2,140.7,25.2,140.7,29.4z M142.1,28.6c0-3.2,2.3-7.2,5.1-8.8c2.8-1.6,5.1-0.3,5.1,2.9c0,3.2-2.3,7.2-5.1,8.8
						C144.4,33.1,142.1,31.8,142.1,28.6z"/>
				</g>
				<g>
					<polygon class="st4" points="143.3,34 142.5,33.5 143.2,33.6 					"/>
				</g>
				<g>
					<polygon class="st4" points="152,17.9 153,18.6 152.2,18.8 					"/>
				</g>
				<g>
					<path class="st3" d="M141.6,30c0,4.1,2.9,5.8,6.5,3.7c3.6-2.1,6.5-7.1,6.5-11.2c0-4.1-2.9-5.8-6.5-3.7
						C144.5,20.9,141.6,25.9,141.6,30z M143,29.2c0-3.2,2.3-7.2,5.1-8.8c2.8-1.6,5.1-0.3,5.1,2.9c0,3.2-2.3,7.2-5.1,8.8
						C145.3,33.8,143,32.5,143,29.2z"/>
				</g>
			</g>
			<g>
				<polygon class="st3" points="148.4,30.6 149.3,29.6 152,31.2 150.3,32 				"/>
			</g>
			<g>
				<path class="st2" d="M148.2,30.5l2.6,1.5l-1.6,1.6L146,35c0,0,0.1-1.4-1.2-3L148.2,30.5z"/>
			</g>
			<g>
				<g>
					<path class="st4" d="M239.9,86.7c0,4.1,2.9,5.8,6.5,3.7c3.6-2.1,6.5-7.1,6.5-11.2c0-4.1-2.9-5.8-6.5-3.7
						C242.8,77.6,239.9,82.6,239.9,86.7z M241.3,85.9c0-3.2,2.3-7.2,5.1-8.8c2.8-1.6,5.1-0.3,5.1,2.9c0,3.2-2.3,7.2-5.1,8.8
						S241.3,89.2,241.3,85.9z"/>
				</g>
				<g>
					<polygon class="st4" points="242.4,91.4 241.7,90.9 242.3,91 					"/>
				</g>
				<g>
					<polygon class="st4" points="251.2,75.2 252.2,75.9 251.3,76.2 					"/>
				</g>
				<g>
					<path class="st3" d="M240.8,87.4c0,4.1,2.9,5.8,6.5,3.7c3.6-2.1,6.5-7.1,6.5-11.2c0-4.1-2.9-5.8-6.5-3.7
						C243.7,78.2,240.8,83.2,240.8,87.4z M242.1,86.6c0-3.2,2.3-7.2,5.1-8.8s5.1-0.3,5.1,2.9c0,3.2-2.3,7.2-5.1,8.8
						C244.4,91.1,242.1,89.8,242.1,86.6z"/>
				</g>
			</g>
			<g>
				<polygon class="st3" points="253.2,113.3 254.5,112.5 254.5,110.3 253.2,111.1 				"/>
			</g>
			<g>
				<path class="st3" d="M247.5,87.9l1-1.1c0,0,2,1.1,2.7,1.7l-1.7,0.8L247.5,87.9z"/>
			</g>
			<g>
				<path class="st2" d="M247.5,87.8c0,0,2.1,1.1,3.1,2.2c1,1.2-5.5,2.3-5.5,2.3s0.2-1.4-1.1-3L247.5,87.8z"/>
			</g>
		</g>
	</g>
</g>
<g>
	<g>
		<g>
			<path class="st4" d="M42,147.1c-0.6-0.4-1.4-0.7-2.1-1l0,0l-4-1.8l0.3,0.7c-3-0.6-6.3-0.6-9.4-0.1l0.2-0.8l-4.7,2.1l0,0
				c-0.6,0.3-1.2,0.5-1.8,0.9c-5.9,3.4-5.9,8.9,0,12.3c5.9,3.4,15.5,3.4,21.4,0C47.9,156,47.9,150.5,42,147.1z"/>
			<path class="st2" d="M36.3,150.3c-2.8,1.6-7.3,1.6-10,0c-2.8-1.6-2.8-4.2,0-5.8c2.8-1.6,7.3-1.6,10,0
				C39.1,146.1,39.1,148.7,36.3,150.3z"/>
		</g>
		<g>
			<path class="st2" d="M31.3,148.5L31.3,148.5c-1.3,0-2.4-1.1-2.4-2.4v-30.5h4.8v30.5C33.7,147.4,32.7,148.5,31.3,148.5z"/>
			<path class="st2" d="M33,116.7c-1,0.6-2.5,0.6-3.5,0c-1-0.6-1-1.5,0-2c1-0.6,2.5-0.6,3.5,0C34,115.3,34,116.2,33,116.7z"/>
		</g>
		<path class="st4" d="M31.3,116.7L31.3,116.7c-1.1,0-2-0.9-2-2V86.1h3.9v28.6C33.3,115.8,32.4,116.7,31.3,116.7z"/>
		<g>
			<path class="st3" d="M59.4,101.1l0-1.1l1.6-0.2l1.8-1.3c0.3-0.2,0.8-0.2,1.2,0l1.3,0.8l1.3-0.2v1.1l0,0c0,0.1-0.1,0.3-0.3,0.3
				l-4.1,1.8c-0.3,0.1-0.8,0.1-1.1,0l-1.4-0.8C59.5,101.3,59.4,101.2,59.4,101.1L59.4,101.1z"/>
			<path class="st2" d="M59.6,99.7l3.2-2.4c0.3-0.2,0.8-0.2,1.2,0l2.4,1.4c0.3,0.2,0.3,0.5-0.1,0.7l-4.1,1.8c-0.3,0.1-0.8,0.1-1.1,0
				l-1.4-0.8C59.3,100.1,59.3,99.9,59.6,99.7z"/>
			<g>
				<path class="st4" d="M54.2,105.1c0.5,0,0.9-0.1,1.3-0.3l5-2.9c0.3-0.2,0.4-0.5,0.2-0.8c-0.2-0.3-0.5-0.4-0.8-0.2l-4.9,2.9
					c-0.4,0.2-1,0.2-1.4,0L45.3,99c-0.3-0.2-0.6-0.1-0.8,0.2c-0.2,0.3-0.1,0.6,0.2,0.8l8.2,4.8C53.3,105,53.7,105.1,54.2,105.1z"/>
			</g>
		</g>
		<g>
			<radialGradient id="SVGID_1_" cx="-45.9744" cy="88.6805" r="49.07" gradientUnits="userSpaceOnUse">
				<stop  offset="0" style="stop-color:#01C8EF"/>
				<stop  offset="8.940536e-02" style="stop-color:#03BEE9"/>
				<stop  offset="0.2388" style="stop-color:#08A5D7"/>
				<stop  offset="0.4288" style="stop-color:#107BBB"/>
				<stop  offset="0.4457" style="stop-color:#1177B8"/>
				<stop  offset="1" style="stop-color:#112564"/>
			</radialGradient>
			<polygon class="st10" points="6.6,94.6 14.5,90 10.1,88 6.3,90.7 			"/>
			<path class="st2" d="M57.6,87.7c-0.4-0.2-0.9-0.5-1.3-0.8L39.4,74.5c-3.1-2.2-6.2-2.8-8.6-1.6c-0.1,0-0.1,0.1-0.2,0.1l0,0
				L7.1,86.6l2.1,0.7l8.2,3.7l11.1,7.9l8.8,4.7l0.4,0.1c2.1-1.7,4.3-3.2,5.6-5.7c2.2-3.8,8.2-4.9,11.8-8c0.4,0.2,0.7,0.4,1.1,0.6
				C57,89.8,57.2,88.8,57.6,87.7z"/>
			<path class="st3" d="M65.1,82.1c-0.4,0-0.7,0.1-1,0.3l0,0L41.2,95.7l0.8,3.4l0.9-0.4c-1.3,2-3.3,3.4-5.1,4.9l2.6,0.5l22.4-13
				c0.1,0,0.2-0.1,0.3-0.1c0.3-0.2,0.6-0.3,0.9-0.5l0,0l0,0c1.7-1.3,2.7-3.6,2.7-6.5v-0.3C66.6,82.8,65.9,82.1,65.1,82.1z"/>
			<g>
				<path class="st11" d="M33.7,72.3c1.4,0.1,3,0.5,4.5,1.5C36.7,72.8,35.2,72.3,33.7,72.3z"/>
				<path class="st2" d="M44.1,96.8v-0.3c0-0.9-0.7-1.6-1.6-1.6c-0.9,0-1.6,0.7-1.6,1.6v0.3c0,2.1-0.7,3.6-1.8,4.2
					c-1.3,0.7-3.3,0.2-5.4-1.3L16.9,87.3c-2.6-1.9-5.3-2.6-7.5-2l14-8.1L7.1,86.6l2.1,0.7l8.2,3.7l11.1,7.9l8.8,4.7l0.4,0.1
					c2.1-1.7,4.3-3.2,5.6-5.7C43.6,97.6,43.9,97.2,44.1,96.8C44.1,96.8,44.1,96.8,44.1,96.8z"/>
			</g>
			<g>
				<path class="st4" d="M37.4,105c-1.9,0-3.9-0.8-5.9-2.2L14.5,90.3c-2-1.5-4-2-5.4-1.3c-1.2,0.6-1.8,2.1-1.8,4.2
					c0,0.9-0.7,1.6-1.6,1.6s-1.6-0.7-1.6-1.6c0-3.3,1.3-5.9,3.6-7c2.4-1.2,5.6-0.7,8.6,1.6l16.9,12.4c2,1.5,4,2,5.4,1.3
					c1.2-0.6,1.8-2.1,1.8-4.2V97c0-0.9,0.7-1.6,1.6-1.6c0.9,0,1.6,0.7,1.6,1.6v0.3c0,3.3-1.3,5.9-3.6,7
					C39.3,104.8,38.3,105,37.4,105z"/>
			</g>
		</g>
	</g>
	<g>
		<g>
			<path class="st2" d="M24,132.7c0,0-3.2-1.6-5.1,0.8c-2,2.4-4.8,8.1-4.8,11.9c-0.1,3.8,3,3.6,4.9,2.7c1.8-0.9,7.3-8.7,7.6-10.3
				c0.3-1.5-0.4-3.6-0.9-4C25.1,133.4,24,132.7,24,132.7z"/>
			<path class="st2" d="M24.7,132l0.1,3.3c0,0.7-0.3,1.4-0.9,1.7c-0.6,0.3-1.4,0.6-2.5,0.4c-2.4-0.4-2.6-1.1-2.8-4.4
				C18.5,129.7,24.7,132,24.7,132z"/>
			<g>
				<path class="st2" d="M12.4,126.4c0,0-3.2-1.6-5.1,0.8c-2,2.4-4.8,8.1-4.8,11.9c-0.1,3.8,3,3.6,4.9,2.7c1.8-0.9,7.3-8.7,7.6-10.3
					c0.3-1.5-0.4-3.6-0.9-4C13.4,127,12.4,126.4,12.4,126.4z"/>
				<path class="st2" d="M13.1,125.6l0.1,3.3c0,0.7-0.3,1.4-0.9,1.7c-0.6,0.3-1.4,0.6-2.5,0.4c-2.4-0.4-2.6-1.1-2.8-4.4
					C6.9,123.3,13.1,125.6,13.1,125.6z"/>
				<path class="st4" d="M41.5,64.9c-0.9-15.4-16.6,2.3-16.6,2.3L14.2,77.7L4.5,88.3c-1.9,2.1-2.8,4.9-2.4,7.7L6,125.8
					c0.2,1.5,1.5,2.6,2.9,2.5c0.4,0,0.9,0,1.4-0.1c3.5-0.5,3.2-3.9,3.2-3.9l-0.7-27.9l20.3-12.2C33.2,84.2,42.5,80.3,41.5,64.9z"/>
			</g>
			<path class="st4" d="M53.2,70.8C52.3,55.4,36.6,73,36.6,73L25.8,83.6l-9.7,10.6c-1.9,2.1-2.8,4.9-2.4,7.7l3.9,29.8
				c0.2,1.5,1.5,2.6,2.9,2.5c0.4,0,0.9,0,1.4-0.1c3.5-0.5,3.2-3.9,3.2-3.9l-0.7-27.9l20.3-12.2C44.9,90.1,54.2,86.1,53.2,70.8z"/>
			<path class="st2" d="M43.9,21.5c11.9,4.9,11.7,12,11.7,12s-2.3,25.8-1.5,43c0.3,7.2-38.2,7.7-32.5-11.5c6.8-22.6,4.2-41,7.4-43.7
				C32.2,18.5,40.9,20.2,43.9,21.5z"/>
			<ellipse transform="matrix(0.2494 -0.9684 0.9684 0.2494 6.0411 60.1332)" class="st12" cx="41.8" cy="26.2" rx="4.5" ry="6.1"/>
			<path class="st6" d="M42.7,31.4c-0.7,0-1.4-0.1-2.2-0.3c-1.7-0.4-3.2-1.3-4.2-2.6c-1-1.3-1.4-2.7-1.1-4c0.7-2.7,4.2-4.2,7.8-3.3
				c3.6,0.9,5.9,3.9,5.2,6.6l0,0C47.8,30,45.4,31.4,42.7,31.4z M40.9,22.1c-2.2,0-4.1,1-4.5,2.7c-0.3,1,0,2.1,0.8,3
				c0.8,1,2.1,1.8,3.6,2.2c3,0.8,5.8-0.3,6.4-2.4c0.5-2.1-1.4-4.4-4.4-5.2C42.2,22.2,41.5,22.1,40.9,22.1z"/>
			<path class="st12" d="M39.2,20.9c0,0,0.1,0.5-0.1,4.2c-0.1,1.2,4.1,2.3,5.2,1.2c1.1-1.1,0.6-2.2,0.9-6.2
				C45.4,16.1,39.2,20.9,39.2,20.9z"/>
			<path class="st13" d="M45.1,20.2c0,0-1,3.7-6.1,5.2l0.1-3.4L45.1,20.2z"/>
			<ellipse transform="matrix(0.9682 -0.2503 0.2503 0.9682 -1.9888 10.2846)" class="st12" cx="39.4" cy="13" rx="9.2" ry="9.2"/>
			<path class="st13" d="M41.5,13.3c0,0-5,2.2-8.5,2.2c-3.5,0-2.7-2.9-2.7-2.9l10.4-1.5L41.5,13.3z"/>
			<path class="st7" d="M32,13.9c0,0,4.4-1.9,8.2-1.1c0.9,0.2,1.7,0.7,2.3,1.4c0.2,0.2,0.4,0.4,0.7,0.5c0.7,0.2,1.8-2.7,3.1-2.7
				c1.3-0.1,2.2,0.9,1.1,2.6c-1.1,1.7-0.7,3.7-0.2,4c0.5,0.3,5.8-3.8,1.1-13.1C43.7-3.8,31.8,1.2,30,3c0,0-2,1.7-3.5,0.2
				C26.4,3.2,24.6,16.6,32,13.9z"/>
			<path class="st12" d="M48.9,52.3v7c0,0.8-0.3,1.6-0.9,2.1l-14.3,13l1.6,2.5l18.9-13.7c0.9-0.6,1.5-1.6,1.6-2.7L57,48.3L48.9,52.3
				z"/>
			<path class="st2" d="M54.6,29.9c0,0,4.3,6.5,6,23.7c0,0-7.4,2.4-11.6,1C44.7,53.3,54.6,29.9,54.6,29.9z"/>
			<path class="st3" d="M48.1,38.2c0,0-1.7,9.1-1.8,13.4c0,1.2,0.7,2.2,1.8,2.6l0,0V38.2z"/>
		</g>
		<g>
			<path class="st2" d="M44.4,83.4L41.2,83L20.8,71.2c-0.7-0.4-1.8-0.3-2.6,0.1L3.8,79.7l-1.9-0.3v1.9l0,0c0,0.3,0.1,0.5,0.4,0.7
				l23.1,13.4c0.7,0.4,1.8,0.3,2.6-0.1l15.8-9.1c0.4-0.2,0.6-0.6,0.6-0.9l0,0V83.4z"/>
			<path class="st3" d="M29.1,76l-1.5-0.8h-16l-7.9,4.5l-1.9-0.3v1.9l0,0c0,0.3,0.1,0.5,0.4,0.7l23.1,13.4c0.3,0.2,0.8,0.3,1.3,0.2
				L29.1,76z"/>
			<path class="st2" d="M2.7,79.6l-0.8-0.1v1.9l0,0c0,0.3,0.1,0.5,0.4,0.7l0.4,0.2V79.6z"/>
			<path class="st5" d="M25.7,95.5c0.6,0.2,1.5,0.2,2.2-0.1v-3.2h-2.2V95.5z"/>
			<path class="st6" d="M25.5,93.5L2.3,80.1c-0.7-0.4-0.6-1,0.2-1.5l15.8-9.1c0.8-0.4,1.9-0.5,2.6-0.1L44,82.8
				c0.7,0.4,0.6,1-0.2,1.5L28,93.4C27.3,93.8,26.1,93.9,25.5,93.5z"/>
			<path class="st4" d="M25.1,91.4L5.8,80.3C5.3,80,5.4,79.5,6,79.1l8.4-4.7c0.6-0.4,1.6-0.4,2.1-0.1l19.2,11.1
				c0.5,0.3,0.5,0.9-0.2,1.2l-8.4,4.7C26.6,91.7,25.6,91.8,25.1,91.4z"/>
		</g>
		<path class="st12" d="M19.2,69.1l-0.2,1.6c-0.2,1.4-0.2,2.7,0.1,4.1l0.3,1.4c0.2,0.8,0.8,1.4,1.6,1.6l0,0c0.6,0.1,1.2-0.3,1.3-1
			l0.4-3.4c0,0,0.9,1.1,1.3,1.1c0.4,0-0.5-3.4-1.4-5.4C21.5,67.2,19.2,69.1,19.2,69.1z"/>
		<path class="st12" d="M27,43.7l-2.5,4.9c-0.6,1.2-0.9,2.4-1,3.7l-1.1,16.8l-3.3-0.1l-1.5-18.9c0-0.6,0-1.2,0.1-1.7l1.7-9.6
			L27,43.7z"/>
		<g>
			<path class="st2" d="M24.7,94.8l-1.9-2.5L2.3,80.4C1.7,80,1.2,79,1.2,78.1l0-16.7L0,59.9l1.1-0.6l0,0c0.2-0.1,0.5-0.1,0.8,0
				L25,72.7c0.7,0.4,1.2,1.4,1.2,2.3l0,18.2c0,0.5-0.2,0.8-0.4,1l0,0L24.7,94.8z"/>
			<path class="st3" d="M10.6,85.2l-1.4-0.8l-8-13.8l0-9.1L0,59.9l1.1-0.6l0,0c0.2-0.1,0.5-0.1,0.8,0L25,72.7c0.3,0.2,0.7,0.6,0.9,1
				L10.6,85.2z"/>
			<path class="st2" d="M0.5,60.6L0,59.9l1.1-0.6l0,0c0.2-0.1,0.5-0.1,0.8,0l0.4,0.2L0.5,60.6z"/>
			<path class="st5" d="M25.2,72.9c0.5,0.4,0.9,1.2,1,1.9l-2.3,1.3l-1.1-1.9L25.2,72.9z"/>
			<path class="st2" d="M23.9,73.3L0.8,60c-0.7-0.4-1.2,0-1.2,0.9l0,18.2c0,0.9,0.5,1.9,1.2,2.3l23.1,13.4c0.7,0.4,1.2,0,1.2-0.9
				l0-18.2C25.1,74.7,24.6,73.7,23.9,73.3z"/>
		</g>
		<path class="st12" d="M35.3,76.9l-0.4,0.8c-0.4,0.9-1.1,1.6-1.9,2.1l-2.3,1.4c-0.7,0.4-1.6,0.5-2.3,0.1c0,0-0.1,0-0.1,0
			c-0.7-0.5-0.8-1.5-0.2-2.1l2.4-2.5c0,0-1.3,1-1.7,0.6c-0.3-0.3,1.3-1.8,2.5-1.8c1.2,0,2.4-1,2.4-1L35.3,76.9z"/>
		<path class="st2" d="M29.2,21.2c0,0-8.8,9.6-12.4,18.4c0,0,3,5.4,10.4,7.5C34.6,49.2,29.2,21.2,29.2,21.2z"/>
		<path class="st3" d="M25.6,46.5L27,32.8l-3.4,12.9C24.2,46,24.9,46.3,25.6,46.5z"/>
		<path class="st6" d="M35.8,19.3l-2.4-0.6c0,0,1.1,1.8,2.8,2.2c1.6,0.5,1.9-0.9,1.9-0.9L35.8,19.3z"/>
	</g>
</g>
<path class="st2" d="M231.1,191.7c-0.1,0-0.2,0-0.3-0.1L143.1,141c-0.3-0.2-0.4-0.6-0.2-0.9c0.2-0.3,0.6-0.4,0.9-0.2l87.6,50.6
	c0.3,0.2,0.4,0.6,0.2,0.9C231.5,191.5,231.3,191.7,231.1,191.7z"/>
<path class="st7" d="M202.4,144.7l-3.7-6c-0.3-0.5-0.1-1.1,0.3-1.4c0.5-0.3,1.1-0.1,1.4,0.3l2.7,4.4l8.5-4.5
	c0.5-0.3,1.1-0.1,1.4,0.4c0.3,0.5,0.1,1.1-0.4,1.4L202.4,144.7z"/>
<path class="st7" d="M196.4,120.5c-1.9,0-4.1-1-5.8-2c-5.2-3-7.8-7-7.8-12c0-2.8,1-4.9,2.8-5.9c1.8-1,4.1-0.8,6.5,0.6
	c4.6,2.7,8.4,9.2,8.4,14.5c0,2.1-0.7,3.6-1.9,4.3C197.9,120.4,197.2,120.5,196.4,120.5z M188.1,101.9c-0.6,0-1.1,0.1-1.6,0.4
	c-1.2,0.7-1.8,2.2-1.8,4.3c0,4.2,2.3,7.7,6.9,10.3c2.7,1.6,5,2.1,6,1.5c0.7-0.4,1-1.3,1-2.7c0-4.7-3.3-10.5-7.4-12.9
	C190,102.2,189,101.9,188.1,101.9z"/>
<path class="st7" d="M203.7,112.1c-0.3,0-0.5-0.1-0.7-0.3c-4.6-5.6-13.7-9.7-13.8-9.7c-0.5-0.2-0.7-0.8-0.5-1.2
	c0.2-0.5,0.8-0.7,1.2-0.5c0.4,0.2,9.6,4.3,14.5,10.3c0.3,0.4,0.3,1-0.1,1.3C204.1,112,203.9,112.1,203.7,112.1z"/>
</svg>
